<svg version="1.1" xmlns="http://www.w3.org/2000/svg" viewBox="0 0 2647.815470003705 1255.1916286873056" width="2647.815470003705" height="1255.1916286873056">
  <!-- svg-source:excalidraw -->
  
  <defs>
    <style class="style-fonts">
      @font-face {
        font-family: "Virgil";
        src: url("https://excalidraw.com/Virgil.woff2");
      }
      @font-face {
        font-family: "Cascadia";
        src: url("https://excalidraw.com/Cascadia.woff2");
      }
    </style>
  </defs>
  <rect x="0" y="0" width="2647.815470003705" height="1255.1916286873056" fill="#ffffff"></rect><g stroke-linecap="round" transform="translate(10 572.4750512764349) rotate(0 276 38)"><path d="M19 0 M19 0 C152 -0.27, 285.56 -1.05, 533 0 M19 0 C167.54 1.4, 315.3 1.38, 533 0 M533 0 C546.83 -0.42, 553.09 6.1, 552 19 M533 0 C547.56 0.92, 551.37 5.86, 552 19 M552 19 C553 31.35, 551.37 40.72, 552 57 M552 19 C551.55 29.52, 551.89 41.01, 552 57 M552 57 C553.59 69.84, 547.54 75.84, 533 76 M552 57 C552.96 69.37, 544.19 75.65, 533 76 M533 76 C378.44 77.93, 224.15 77.74, 19 76 M533 76 C362.37 75.15, 192.83 75.72, 19 76 M19 76 C6.54 77.75, -1.64 71.62, 0 57 M19 76 C4.37 74.71, -1.73 68.17, 0 57 M0 57 C-0.15 43.98, 0.57 28.83, 0 19 M0 57 C-0.51 46.37, -0.52 34.07, 0 19 M0 19 C0.24 5.86, 7.97 -0.5, 19 0 M0 19 C2.09 5.17, 6.53 2.1, 19 0" stroke="#1e1e1e" stroke-width="1" fill="none"></path></g><g transform="translate(20.72015380859375 597.9750512764349) rotate(0 265.27984619140625 12.5)"><text x="265.27984619140625" y="0" font-family="Virgil, Segoe UI Emoji" font-size="20px" fill="#1e1e1e" text-anchor="middle" style="white-space: pre;" direction="ltr" dominant-baseline="text-before-edge">LWS_CALLBACK_FILTER_PROTOCOL_CONNECTION</text></g><g stroke-linecap="round" transform="translate(1588.432709400788 149.96229968476564) rotate(0 221 43.5)"><path d="M21.75 0 M21.75 0 C111.91 -0.32, 204.04 -2.34, 420.25 0 M21.75 0 C152.51 -1.87, 284.57 -1.39, 420.25 0 M420.25 0 C434.27 0.02, 441.44 7.21, 442 21.75 M420.25 0 C433.08 1.73, 439.89 5.66, 442 21.75 M442 21.75 C440.43 32.3, 441.81 38.58, 442 65.25 M442 21.75 C442.19 36.45, 442.75 52.51, 442 65.25 M442 65.25 C442.48 78.16, 434.62 85.17, 420.25 87 M442 65.25 C443.1 81.14, 434.44 88.44, 420.25 87 M420.25 87 C282.6 86.14, 147.13 87.58, 21.75 87 M420.25 87 C296.2 87.21, 172.94 87.63, 21.75 87 M21.75 87 C8.52 87.97, 1.88 80.54, 0 65.25 M21.75 87 C8.49 86.97, 1.05 78.16, 0 65.25 M0 65.25 C0.61 57.02, 1.5 46.29, 0 21.75 M0 65.25 C0.41 51.44, 0.46 39.29, 0 21.75 M0 21.75 C1.67 7.58, 8.44 -0.59, 21.75 0 M0 21.75 C-0.31 8.66, 8.13 -1.26, 21.75 0" stroke="#1e1e1e" stroke-width="1" fill="none"></path></g><g transform="translate(1677.9427802015693 180.96229968476564) rotate(0 131.48992919921875 12.5)"><text x="131.48992919921875" y="0" font-family="Virgil, Segoe UI Emoji" font-size="20px" fill="#1e1e1e" text-anchor="middle" style="white-space: pre;" direction="ltr" dominant-baseline="text-before-edge">LWS_CALLBACK_RECEIVE</text></g><g stroke-linecap="round" transform="translate(758.2053407611263 151.89069355651827) rotate(0 190.5 41)"><path d="M4.8 5.5 C4.8 5.5, 4.8 5.5, 4.8 5.5 M4.8 5.5 C4.8 5.5, 4.8 5.5, 4.8 5.5 M3.23 13.41 C4.76 11.3, 7.17 7.13, 13.07 2.08 M3.23 13.41 C6.25 9.59, 10.61 5.08, 13.07 2.08 M1.65 21.31 C7.61 14.51, 9.5 11.45, 18.71 1.69 M1.65 21.31 C6.77 15.65, 12.56 9.08, 18.71 1.69 M1.39 27.71 C8.16 16.91, 16.65 9.8, 23.04 2.8 M1.39 27.71 C7.52 19.12, 16.16 11.28, 23.04 2.8 M1.13 34.11 C9.6 22.2, 18.04 12.24, 28.69 2.41 M1.13 34.11 C8.59 26.49, 14.79 17.72, 28.69 2.41 M1.53 39.75 C8.59 33.74, 13.44 25.07, 33.67 2.77 M1.53 39.75 C11.02 29.22, 20.38 17.79, 33.67 2.77 M1.26 46.15 C16.02 30.28, 29.17 14.2, 39.32 2.38 M1.26 46.15 C10.43 37.83, 17.4 26.49, 39.32 2.38 M1.66 51.79 C11.85 41.89, 21.6 30.24, 44.3 2.74 M1.66 51.79 C9.84 41.72, 19.89 30.64, 44.3 2.74 M1.4 58.19 C11.94 44.96, 22.84 35.33, 49.95 2.34 M1.4 58.19 C19.87 37.68, 38.2 14.88, 49.95 2.34 M2.45 63.08 C14.52 49.33, 28.1 32.89, 54.93 2.7 M2.45 63.08 C15.15 46.82, 29.08 32.96, 54.93 2.7 M1.53 70.23 C17.77 52.41, 32.51 31.8, 60.58 2.31 M1.53 70.23 C20 47.54, 39.83 26.97, 60.58 2.31 M3.89 73.61 C25.91 50.91, 45.22 25.96, 65.56 2.67 M3.89 73.61 C16.47 59.27, 30.12 43.46, 65.56 2.67 M6.26 76.99 C29.93 47.03, 57.14 17.65, 71.21 2.27 M6.26 76.99 C27.5 52.8, 49.08 27.45, 71.21 2.27 M9.27 79.61 C31.74 57.84, 50.78 31.49, 76.19 2.63 M9.27 79.61 C30.15 55.59, 51.76 29.36, 76.19 2.63 M12.95 81.48 C39.12 52.21, 66.61 20.64, 81.84 2.24 M12.95 81.48 C30.54 61, 48.33 40.18, 81.84 2.24 M17.28 82.6 C36.02 61.34, 56.27 38.19, 86.82 2.6 M17.28 82.6 C36.66 59.3, 58.12 34.74, 86.82 2.6 M22.27 82.96 C45.15 56.15, 68.58 33.87, 92.47 2.2 M22.27 82.96 C42.19 59.63, 62.72 38.02, 92.47 2.2 M27.91 82.56 C51.21 58.11, 69.36 36.26, 97.45 2.56 M27.91 82.56 C44.7 63.39, 60.25 44.3, 97.45 2.56 M32.9 82.92 C49.04 67.96, 61.85 50, 103.1 2.17 M32.9 82.92 C55.93 56.27, 79.91 28.29, 103.1 2.17 M38.54 82.53 C55.05 61.6, 72.43 41.06, 108.08 2.53 M38.54 82.53 C62.3 53.98, 86.11 27.59, 108.08 2.53 M43.53 82.89 C67.73 51.81, 96.56 22.17, 113.07 2.89 M43.53 82.89 C61.68 61.25, 80.29 39.54, 113.07 2.89 M48.51 83.25 C63.25 65.18, 81.76 41.9, 118.71 2.49 M48.51 83.25 C76.52 51.18, 104.09 18.57, 118.71 2.49 M54.16 82.85 C68.54 65.27, 85.01 46.45, 123.7 2.85 M54.16 82.85 C75.23 59.39, 95.19 36.05, 123.7 2.85 M59.14 83.21 C85.42 51.12, 109.79 22.68, 129.34 2.46 M59.14 83.21 C77.72 61.43, 96.88 40.28, 129.34 2.46 M64.79 82.82 C85.28 58.42, 108.82 33.06, 134.33 2.82 M64.79 82.82 C88.82 53.4, 114.67 24.58, 134.33 2.82 M69.77 83.18 C96.35 57.14, 121.14 27.76, 139.97 2.43 M69.77 83.18 C86.63 64.4, 102.15 45.57, 139.97 2.43 M75.42 82.78 C94.09 59.79, 116.1 39.77, 144.96 2.79 M75.42 82.78 C101.61 53.18, 124.82 24.53, 144.96 2.79 M80.4 83.14 C102.92 61.4, 123.16 35.07, 150.6 2.39 M80.4 83.14 C97.77 63.11, 114.96 44.91, 150.6 2.39 M86.05 82.75 C104.18 60.68, 121.51 40.37, 155.59 2.75 M86.05 82.75 C106.56 59.7, 128.29 36.19, 155.59 2.75 M91.03 83.11 C116.38 54.08, 138.18 27.81, 161.23 2.36 M91.03 83.11 C108.73 62.12, 125.27 42.04, 161.23 2.36 M96.68 82.72 C119.36 55.13, 141.97 28.64, 166.22 2.72 M96.68 82.72 C120.42 53.85, 146.29 27.43, 166.22 2.72 M101.66 83.08 C119.43 64.36, 134.58 41.71, 171.86 2.32 M101.66 83.08 C120.16 61.56, 137.95 39.98, 171.86 2.32 M107.31 82.68 C124.92 62.4, 141.68 40.83, 176.85 2.68 M107.31 82.68 C122.83 62.34, 140 43.76, 176.85 2.68 M112.3 83.04 C137.26 55.83, 160 27.72, 182.49 2.29 M112.3 83.04 C136.24 53.67, 163.24 25.57, 182.49 2.29 M117.94 82.65 C139.25 56.69, 163.36 33.37, 187.48 2.65 M117.94 82.65 C146.14 49.96, 173.78 18.51, 187.48 2.65 M122.93 83.01 C147.65 50.98, 175.19 21.36, 193.12 2.25 M122.93 83.01 C139.27 65.12, 153.32 48.14, 193.12 2.25 M128.57 82.61 C150.72 57.38, 171.58 33.14, 198.11 2.61 M128.57 82.61 C145.05 65.2, 159.71 48.42, 198.11 2.61 M133.56 82.97 C158.57 55.3, 183.61 26.52, 203.1 2.97 M133.56 82.97 C159.77 52.66, 186.29 22.44, 203.1 2.97 M138.54 83.33 C162.45 55.12, 185.41 31.28, 208.74 2.58 M138.54 83.33 C154.71 64.38, 172.76 45.67, 208.74 2.58 M144.19 82.94 C159.08 62.63, 177.19 47.82, 213.73 2.94 M144.19 82.94 C158.33 67.64, 172.83 49.52, 213.73 2.94 M149.17 83.3 C173.52 55.2, 202.97 23.51, 219.37 2.54 M149.17 83.3 C171.56 57.28, 193.95 32.13, 219.37 2.54 M154.82 82.9 C183.24 50.59, 210.58 19.76, 224.36 2.9 M154.82 82.9 C176.11 56.02, 199.11 31.16, 224.36 2.9 M159.8 83.26 C184.94 52.28, 212.52 23.57, 230 2.51 M159.8 83.26 C179.08 61.54, 198.48 38.92, 230 2.51 M165.45 82.87 C184.95 63.01, 199.6 44.02, 234.99 2.87 M165.45 82.87 C193.1 51.94, 218.56 20.89, 234.99 2.87 M170.43 83.23 C193.19 54.01, 219.3 27.57, 240.63 2.48 M170.43 83.23 C190.36 62.4, 207.91 40.45, 240.63 2.48 M176.08 82.83 C205.89 51.94, 229.99 19.79, 245.62 2.84 M176.08 82.83 C197.05 58.32, 218.11 34.8, 245.62 2.84 M181.06 83.19 C199.62 66.88, 213.05 47.79, 251.26 2.44 M181.06 83.19 C205.55 53.21, 231.71 25.04, 251.26 2.44 M186.71 82.8 C203.84 62.73, 222.76 40.78, 256.25 2.8 M186.71 82.8 C213.38 51.66, 241.98 20.26, 256.25 2.8 M191.69 83.16 C211.42 60.92, 233.04 37.06, 261.89 2.41 M191.69 83.16 C206.58 63.97, 223.9 45.73, 261.89 2.41 M197.34 82.77 C217.66 62.03, 232.22 43.24, 266.88 2.77 M197.34 82.77 C215.3 62.01, 232.4 44.01, 266.88 2.77 M202.32 83.13 C221.42 64.08, 239.78 43.76, 272.52 2.37 M202.32 83.13 C217.38 66.96, 231.45 49.04, 272.52 2.37 M207.97 82.73 C224.01 63.31, 239.38 47.51, 277.51 2.73 M207.97 82.73 C228.31 59.63, 247.33 36.69, 277.51 2.73 M212.95 83.09 C227.43 66.89, 242.46 51.85, 283.15 2.34 M212.95 83.09 C230.06 63.09, 246.29 44.24, 283.15 2.34 M218.6 82.7 C233.83 65.35, 248.11 48.48, 288.14 2.7 M218.6 82.7 C241.23 55.09, 266.16 27.03, 288.14 2.7 M223.58 83.06 C246.07 59.76, 266.55 34.58, 293.13 3.06 M223.58 83.06 C249.58 55.51, 273.81 26.73, 293.13 3.06 M228.57 83.42 C245.08 62.32, 264.12 41.49, 298.77 2.66 M228.57 83.42 C252.29 55.5, 277.75 25.76, 298.77 2.66 M234.21 83.02 C251.41 61.12, 267.17 42.11, 303.76 3.02 M234.21 83.02 C258.99 51.84, 285.04 23.53, 303.76 3.02 M239.2 83.38 C258.03 61.25, 275.64 40.59, 309.4 2.63 M239.2 83.38 C255.18 62.89, 273.44 43.21, 309.4 2.63 M244.84 82.99 C262.29 66.99, 277.27 47.85, 314.39 2.99 M244.84 82.99 C259.89 66.31, 275.77 48.57, 314.39 2.99 M249.83 83.35 C264.91 65.66, 283.97 44.94, 320.03 2.59 M249.83 83.35 C277.89 52, 303.58 18.95, 320.03 2.59 M255.47 82.95 C278.65 58.63, 298.75 31.54, 325.02 2.95 M255.47 82.95 C280.83 54.06, 305.56 26.28, 325.02 2.95 M260.46 83.31 C282.9 55.73, 305.86 31.79, 330.66 2.56 M260.46 83.31 C276.89 65.37, 292.41 47.12, 330.66 2.56 M266.1 82.92 C289.92 52.05, 316.76 24.92, 335.65 2.92 M266.1 82.92 C282.31 64.11, 297.22 46.68, 335.65 2.92 M271.09 83.28 C296.99 50.69, 326.52 22.79, 341.29 2.52 M271.09 83.28 C286.36 66.7, 299.88 49.96, 341.29 2.52 M276.73 82.88 C295.6 60.62, 316.16 38.37, 346.28 2.88 M276.73 82.88 C302.96 54.11, 330.03 22.23, 346.28 2.88 M281.72 83.24 C304.6 56.18, 326.23 31.3, 351.92 2.49 M281.72 83.24 C298.58 64.72, 313.86 46.94, 351.92 2.49 M287.36 82.85 C307.23 61.72, 325.31 35.49, 356.91 2.85 M287.36 82.85 C309.79 58.84, 330.94 34.22, 356.91 2.85 M292.35 83.21 C310.28 62.01, 329.09 43.89, 362.55 2.46 M292.35 83.21 C309.34 62.07, 327.52 43.14, 362.55 2.46 M297.99 82.82 C320.99 56.86, 343.06 29.29, 367.54 2.82 M297.99 82.82 C315.69 63.1, 333.33 43.73, 367.54 2.82 M302.98 83.18 C321.76 62.26, 344.68 37.09, 371.87 3.93 M302.98 83.18 C319.96 62.73, 337.12 43.07, 371.87 3.93 M308.62 82.78 C325.57 62.74, 343.93 41.77, 376.2 5.05 M308.62 82.78 C333.92 53.64, 361.01 22.43, 376.2 5.05 M313.61 83.14 C334.94 57.34, 358.75 31.88, 377.9 9.18 M313.61 83.14 C329.45 64.42, 346.24 46.9, 377.9 9.18 M318.6 83.5 C330.97 68.61, 343.55 52.46, 380.27 12.56 M318.6 83.5 C332.74 66.65, 349.09 47.89, 380.27 12.56 M324.24 83.11 C337.74 70.45, 349.2 57.35, 381.32 17.45 M324.24 83.11 C342.92 61.3, 360.21 41.27, 381.32 17.45 M329.23 83.47 C344.12 65.23, 361.23 48.69, 382.37 22.33 M329.23 83.47 C343.94 66.3, 359.08 49.14, 382.37 22.33 M334.87 83.07 C353.37 62.19, 371.29 42.72, 382.76 27.98 M334.87 83.07 C353.29 62.91, 371.07 42.8, 382.76 27.98 M339.86 83.43 C351.71 72.72, 361.87 59.75, 382.5 34.38 M339.86 83.43 C353.23 68.46, 367.5 52.49, 382.5 34.38 M345.5 83.04 C351.53 72.23, 363.05 65.85, 382.24 40.77 M345.5 83.04 C358.52 68.24, 369.55 55.15, 382.24 40.77 M350.49 83.4 C362.98 68.86, 376.8 52.87, 382.63 46.42 M350.49 83.4 C358.48 74.36, 368.25 64.46, 382.63 46.42 M356.13 83 C365.01 72.02, 370.95 62.14, 382.37 52.81 M356.13 83 C361.75 76.47, 367.16 69.96, 382.37 52.81 M361.77 82.61 C366.86 74.19, 375.16 68.07, 382.11 59.21 M361.77 82.61 C365.27 78.21, 370.68 72.17, 382.11 59.21 M367.42 82.21 C371.35 76.91, 375.28 75.94, 381.19 66.36 M367.42 82.21 C370.84 78.29, 373.83 74.22, 381.19 66.36" stroke="#b2f2bb" stroke-width="0.5" fill="none"></path><path d="M20.5 0 M20.5 0 C118.22 1.38, 215.05 0.91, 360.5 0 M20.5 0 C154.98 0.39, 288.38 0.08, 360.5 0 M360.5 0 C375.04 0.7, 380.34 5.64, 381 20.5 M360.5 0 C373.15 -0.75, 382 5.74, 381 20.5 M381 20.5 C379.39 34.35, 379.3 45.72, 381 61.5 M381 20.5 C380.66 29.83, 380.77 40.06, 381 61.5 M381 61.5 C382.71 76.55, 372.33 81.27, 360.5 82 M381 61.5 C379.07 76.58, 373.29 79.9, 360.5 82 M360.5 82 C250.18 81.78, 142.57 81.05, 20.5 82 M360.5 82 C275.22 83.17, 189.65 82.27, 20.5 82 M20.5 82 C8.58 81.51, -1.18 77.13, 0 61.5 M20.5 82 C6.03 80.89, -0.89 74.23, 0 61.5 M0 61.5 C-0.56 48.76, 0.52 34.6, 0 20.5 M0 61.5 C-0.09 49.6, 1.15 40.31, 0 20.5 M0 20.5 C-1.75 8.71, 8.01 1.16, 20.5 0 M0 20.5 C1.59 6.38, 7.43 -1.57, 20.5 0" stroke="#1e1e1e" stroke-width="1" fill="none"></path></g><g transform="translate(854.0253557147396 180.39069355651827) rotate(0 94.67998504638672 12.5)"><text x="94.67998504638672" y="0" font-family="Virgil, Segoe UI Emoji" font-size="20px" fill="#1e1e1e" text-anchor="middle" style="white-space: pre;" direction="ltr" dominant-baseline="text-before-edge">客户端发送data事件</text></g><g stroke-linecap="round"><g transform="translate(1449.4326440059772 191.17648948666192) rotate(0 71.09056743032166 2.5518667654764613)"><path d="M-0.34 0.69 C23.31 1.63, 118.78 4.62, 142.52 5.1 M1.68 0 C25.09 0.64, 117.57 2.53, 141.39 3.26" stroke="#1e1e1e" stroke-width="1" fill="none"></path></g><g transform="translate(1449.4326440059772 191.17648948666192) rotate(0 71.09056743032166 2.5518667654764613)"><path d="M114.1 12.25 C123.91 8.3, 131.39 6.08, 139.97 4.99 M112.23 13.71 C125.1 9.78, 136.19 6.05, 141.95 2.49" stroke="#1e1e1e" stroke-width="1" fill="none"></path></g><g transform="translate(1449.4326440059772 191.17648948666192) rotate(0 71.09056743032166 2.5518667654764613)"><path d="M114.61 -8.26 C124.14 -4.99, 131.44 0.01, 139.97 4.99 M112.74 -6.81 C125.32 -2.67, 136.21 1.68, 141.95 2.49" stroke="#1e1e1e" stroke-width="1" fill="none"></path></g></g><mask></mask><g stroke-linecap="round"><g transform="translate(2031.432709400788 193.45876805421722) rotate(0 47.750361591116075 -0.7350793045973205)"><path d="M-1.01 -0.44 C15.15 -0.76, 80.49 -1.14, 96.51 -1.23 M0.67 -1.72 C16.79 -1.9, 80.47 -0.09, 96.04 0.26" stroke="#1e1e1e" stroke-width="1" fill="none"></path></g><g transform="translate(2031.432709400788 193.45876805421722) rotate(0 47.750361591116075 -0.7350793045973205)"><path d="M66.86 11.33 C74.84 6.76, 82.68 6.7, 97.71 -1.15 M66.79 9.17 C74.89 6.6, 83.53 3.78, 96.77 -0.07" stroke="#1e1e1e" stroke-width="1" fill="none"></path></g><g transform="translate(2031.432709400788 193.45876805421722) rotate(0 47.750361591116075 -0.7350793045973205)"><path d="M67.38 -9.18 C75.33 -8.39, 83.04 -3.09, 97.71 -1.15 M67.31 -11.34 C75.15 -8.32, 83.66 -5.55, 96.77 -0.07" stroke="#1e1e1e" stroke-width="1" fill="none"></path></g></g><mask></mask><g stroke-linecap="round" transform="translate(2056.3101258381093 338.2942210186393) rotate(0 278 49.5)"><path d="M24.75 0 M24.75 0 C146.15 -2.08, 268.13 -1.75, 531.25 0 M24.75 0 C179 -2.03, 334.06 -2.25, 531.25 0 M531.25 0 C549.37 -0.88, 557.49 8.61, 556 24.75 M531.25 0 C547.9 -0.94, 556.2 7.05, 556 24.75 M556 24.75 C554.61 38.27, 556.39 54.3, 556 74.25 M556 24.75 C556.85 38.39, 557.28 52.83, 556 74.25 M556 74.25 C555.53 91.8, 549.59 97.64, 531.25 99 M556 74.25 C556.36 90, 545.68 99.54, 531.25 99 M531.25 99 C428.78 100.15, 325.77 100.09, 24.75 99 M531.25 99 C428.21 99.55, 325.18 100.28, 24.75 99 M24.75 99 C7.69 98.12, 1.5 89.58, 0 74.25 M24.75 99 C9.56 100.52, 1.04 92.14, 0 74.25 M0 74.25 C0.35 62.13, 1.5 53.68, 0 24.75 M0 74.25 C-0.6 59.44, -0.94 44.34, 0 24.75 M0 24.75 C-0.81 7.71, 7.38 0.25, 24.75 0 M0 24.75 C-1.12 6.83, 7.4 -1.97, 24.75 0" stroke="#1e1e1e" stroke-width="1" fill="none"></path></g><g transform="translate(2146.6102509601797 375.2942210186393) rotate(0 187.6998748779297 12.5)"><text x="187.6998748779297" y="0" font-family="Virgil, Segoe UI Emoji" font-size="20px" fill="#1e1e1e" text-anchor="middle" style="white-space: pre;" direction="ltr" dominant-baseline="text-before-edge">写入到socketID对应的session.pipes[1]中</text></g><g stroke-linecap="round" transform="translate(969.2423087776476 816.438352105245) rotate(0 146 25.5)"><path d="M3.39 2.95 C3.39 2.95, 3.39 2.95, 3.39 2.95 M3.39 2.95 C3.39 2.95, 3.39 2.95, 3.39 2.95 M-0.15 13.12 C3.86 10.43, 5.42 8.1, 9.04 2.56 M-0.15 13.12 C3.29 8.49, 6.06 5.15, 9.04 2.56 M0.25 18.76 C4.08 14.39, 8.6 10.96, 14.68 2.16 M0.25 18.76 C4.16 13.96, 9.46 8.72, 14.68 2.16 M0.64 24.41 C6.38 16.91, 14.5 9.4, 20.32 1.77 M0.64 24.41 C8.45 17.53, 15.45 9.05, 20.32 1.77 M0.38 30.81 C7.93 24.85, 11.54 18.73, 25.31 2.13 M0.38 30.81 C6.9 22.45, 15.17 15.59, 25.31 2.13 M0.77 36.45 C13.46 22.56, 21.25 9.73, 30.95 1.73 M0.77 36.45 C10.52 27.22, 19.18 15.75, 30.95 1.73 M1.17 42.09 C9.97 31.44, 19.12 24.06, 35.94 2.09 M1.17 42.09 C10.24 31.06, 18.9 20.9, 35.94 2.09 M2.88 46.23 C13.59 34.13, 27.42 21.18, 41.58 1.7 M2.88 46.23 C16.81 30.29, 28.97 15.71, 41.58 1.7 M5.24 49.6 C15.68 36.36, 24.54 24.06, 46.57 2.06 M5.24 49.6 C18.82 33.37, 32.3 17.62, 46.57 2.06 M9.57 50.72 C23.65 31.64, 41.28 18.03, 52.21 1.66 M9.57 50.72 C20.3 39.21, 29.73 25.75, 52.21 1.66 M12.59 53.34 C24.55 40.3, 34.54 26.57, 57.2 2.02 M12.59 53.34 C23.98 40.28, 34.9 26.57, 57.2 2.02 M18.23 52.95 C27.65 38.89, 39.48 27.62, 62.84 1.63 M18.23 52.95 C34 35.72, 48.57 17.98, 62.84 1.63 M23.22 53.31 C37.32 34.2, 56.84 17.69, 67.83 1.99 M23.22 53.31 C36.99 36.75, 52.19 21.46, 67.83 1.99 M28.21 53.67 C46.31 31.18, 64.3 11.16, 73.47 1.59 M28.21 53.67 C44.36 33.22, 62.03 13.92, 73.47 1.59 M33.85 53.27 C45.4 42.31, 52.67 32.3, 78.46 1.95 M33.85 53.27 C48.06 37.19, 61.52 21.57, 78.46 1.95 M38.84 53.63 C50.65 41.98, 59.25 32.25, 84.1 1.56 M38.84 53.63 C55.14 35.58, 71.37 16.92, 84.1 1.56 M44.48 53.24 C61.28 33.8, 79.03 13.98, 89.09 1.92 M44.48 53.24 C59.48 35.52, 74.03 20.07, 89.09 1.92 M49.47 53.6 C58.69 41.4, 71.97 30.24, 94.08 2.28 M49.47 53.6 C59.07 40.8, 70.37 30.82, 94.08 2.28 M55.11 53.21 C64.9 44.62, 74.62 30.58, 99.72 1.89 M55.11 53.21 C70.84 35.17, 89.07 15.28, 99.72 1.89 M60.1 53.57 C74.05 36.38, 88.16 21.36, 104.71 2.25 M60.1 53.57 C78.13 32.98, 95.67 13.11, 104.71 2.25 M65.74 53.17 C78.7 35.24, 94.03 20.82, 110.35 1.85 M65.74 53.17 C81.75 33.66, 99.03 15.29, 110.35 1.85 M70.73 53.53 C82.06 39.91, 94.23 25.3, 115.34 2.21 M70.73 53.53 C83 40.72, 92.75 28.44, 115.34 2.21 M76.37 53.14 C95.44 34.22, 109.34 14.74, 120.98 1.82 M76.37 53.14 C91.01 34.68, 107.34 17.7, 120.98 1.82 M81.36 53.5 C95.03 41.05, 104.92 26.16, 125.97 2.18 M81.36 53.5 C100.24 33.51, 116.19 12.96, 125.97 2.18 M87 53.1 C100.75 37.09, 114.25 22.96, 131.61 1.78 M87 53.1 C98.53 42.46, 107.48 30.35, 131.61 1.78 M91.99 53.46 C106.23 33.21, 123.27 17.47, 136.6 2.14 M91.99 53.46 C103.05 40.62, 115.04 26.75, 136.6 2.14 M97.63 53.07 C114.06 33.81, 133.92 13.97, 142.24 1.75 M97.63 53.07 C110.21 38.88, 123.75 23.82, 142.24 1.75 M102.62 53.43 C111.13 40.46, 124.05 28.97, 147.23 2.11 M102.62 53.43 C115.38 40.26, 125.15 27.99, 147.23 2.11 M108.26 53.03 C120.08 38.41, 130.91 29.29, 152.87 1.71 M108.26 53.03 C120.32 40.71, 131.93 27.77, 152.87 1.71 M113.25 53.39 C123.84 43.95, 131.69 31.46, 157.86 2.07 M113.25 53.39 C123.43 41.21, 133.31 30.78, 157.86 2.07 M118.89 53 C133.12 37.96, 144.88 22.32, 163.5 1.68 M118.89 53 C128.07 42.77, 137.51 33.04, 163.5 1.68 M123.88 53.36 C135.65 39.44, 145.31 27.97, 168.49 2.04 M123.88 53.36 C133.58 42.24, 142.77 31.44, 168.49 2.04 M128.86 53.72 C142.3 35.58, 159.55 16.97, 174.13 1.64 M128.86 53.72 C143.35 38.3, 156.79 22.04, 174.13 1.64 M134.51 53.32 C151.74 36.83, 166.2 18.4, 179.12 2 M134.51 53.32 C145.21 39.9, 157.25 26.59, 179.12 2 M139.49 53.68 C153.74 36.62, 170.58 16.34, 184.11 2.36 M139.49 53.68 C150.5 39.9, 160.79 27.63, 184.11 2.36 M145.14 53.29 C160.31 32.13, 177.11 16.11, 189.75 1.97 M145.14 53.29 C157.01 39.46, 168.22 26.36, 189.75 1.97 M150.12 53.65 C159.89 39.89, 173.11 27.32, 194.74 2.33 M150.12 53.65 C161.06 43.24, 170.67 31.23, 194.74 2.33 M155.77 53.25 C164.63 43.47, 176.09 31.34, 200.38 1.93 M155.77 53.25 C165.6 41.75, 177.48 28.69, 200.38 1.93 M160.75 53.62 C179.75 34.94, 193.61 12, 205.37 2.29 M160.75 53.62 C175.51 37.89, 188.69 20.74, 205.37 2.29 M166.4 53.22 C182.54 34.06, 197.93 17.69, 211.01 1.9 M166.4 53.22 C180.84 35.79, 195.44 20.23, 211.01 1.9 M171.38 53.58 C182.9 41.39, 192.51 29.51, 216 2.26 M171.38 53.58 C186.84 34.05, 203.86 16.35, 216 2.26 M177.03 53.19 C188.37 40.14, 196.62 30.12, 221.64 1.87 M177.03 53.19 C193.66 32.7, 212.1 14.52, 221.64 1.87 M182.01 53.55 C192.47 42.97, 200.26 31.65, 226.63 2.23 M182.01 53.55 C194.11 39.36, 207.12 25.09, 226.63 2.23 M187.66 53.15 C204 35.8, 222.59 12.93, 232.27 1.83 M187.66 53.15 C202.22 36.03, 216.12 20.04, 232.27 1.83 M192.64 53.51 C203.78 41.63, 212.51 31.2, 237.26 2.19 M192.64 53.51 C205.38 39.73, 217.22 23.39, 237.26 2.19 M198.29 53.12 C213.59 38.36, 227.29 22.02, 242.9 1.8 M198.29 53.12 C209.67 39.78, 221.47 27.96, 242.9 1.8 M203.27 53.48 C213.09 38.77, 225.69 28.25, 247.89 2.16 M203.27 53.48 C217.9 36.82, 232.15 19.34, 247.89 2.16 M208.92 53.08 C220.05 40.42, 231.97 28.55, 253.53 1.76 M208.92 53.08 C221.31 39.25, 235.68 23.32, 253.53 1.76 M213.9 53.44 C224.66 39.65, 236.01 26.72, 258.52 2.12 M213.9 53.44 C225.17 40.22, 237.08 26.6, 258.52 2.12 M218.89 53.8 C234.84 34.97, 254.03 12.82, 264.16 1.73 M218.89 53.8 C234.15 35.44, 250.75 17.31, 264.16 1.73 M224.53 53.41 C234.66 40.54, 247.45 29.42, 269.15 2.09 M224.53 53.41 C233.59 42.48, 242.91 30.93, 269.15 2.09 M229.52 53.77 C238.67 42.34, 251.67 27.48, 274.13 2.45 M229.52 53.77 C239.56 43.55, 248.58 33.22, 274.13 2.45 M235.16 53.37 C250.2 35.81, 262.7 21.17, 279.78 2.05 M235.16 53.37 C247.83 38.06, 261.74 23.63, 279.78 2.05 M240.15 53.73 C252.34 39.53, 264.69 25.86, 284.76 2.41 M240.15 53.73 C257.02 34.35, 273.68 15.76, 284.76 2.41 M245.79 53.34 C263 34.51, 279.49 16.22, 289.09 3.53 M245.79 53.34 C257.39 41.56, 268.21 28.47, 289.09 3.53 M250.78 53.7 C263.3 40.08, 277.88 24.2, 291.46 6.91 M250.78 53.7 C258.56 42.67, 269.22 33.84, 291.46 6.91 M256.42 53.3 C269.25 38.8, 278.47 27.4, 291.2 13.3 M256.42 53.3 C270.13 37.61, 284.49 21.04, 291.2 13.3 M261.41 53.66 C268.29 45.96, 279.01 36.31, 291.59 18.95 M261.41 53.66 C271.04 41.92, 279.33 30.86, 291.59 18.95 M267.05 53.27 C272.33 47.26, 277.23 41.06, 291.33 25.35 M267.05 53.27 C273.85 44.03, 282.31 36.01, 291.33 25.35 M272.04 53.63 C274.77 50.04, 281.15 43.07, 291.72 30.99 M272.04 53.63 C276.84 47.74, 281.68 43.94, 291.72 30.99 M279.65 50.97 C282.79 47.22, 285.21 43.29, 291.46 37.39 M279.65 50.97 C283.21 47.51, 286.2 43.3, 291.46 37.39 M285.3 50.58 C288.58 47.26, 290.01 43.47, 292.51 42.28 M285.3 50.58 C287.42 47.51, 290.05 45.14, 292.51 42.28" stroke="#ffec99" stroke-width="0.5" fill="none"></path><path d="M12.75 0 M12.75 0 C81.4 -0.89, 148.79 -0.96, 279.25 0 M12.75 0 C108.12 -2.42, 202.74 -2.33, 279.25 0 M279.25 0 C289.22 1.71, 293.38 2.41, 292 12.75 M279.25 0 C286.91 -1.93, 293.41 3.37, 292 12.75 M292 12.75 C291.7 16.98, 292.33 25.29, 292 38.25 M292 12.75 C292.27 19.26, 292.29 25.35, 292 38.25 M292 38.25 C290.13 48.49, 287.26 49.82, 279.25 51 M292 38.25 C294.26 45.94, 286.64 50.11, 279.25 51 M279.25 51 C211.12 50.77, 142.48 51.63, 12.75 51 M279.25 51 C173.07 48.67, 67.27 49.66, 12.75 51 M12.75 51 C5.66 49.25, 1.87 47.93, 0 38.25 M12.75 51 C5.58 52.59, -0.45 47.35, 0 38.25 M0 38.25 C1.43 31.85, 0.16 25.22, 0 12.75 M0 38.25 C0.31 31.84, -0.71 25.83, 0 12.75 M0 12.75 C-0.61 5.44, 3.51 -0.56, 12.75 0 M0 12.75 C-0.61 4.09, 2.58 0.45, 12.75 0" stroke="#1e1e1e" stroke-width="1" fill="none"></path></g><g transform="translate(1011.9723960579211 829.438352105245) rotate(0 103.26991271972656 12.5)"><text x="103.26991271972656" y="0" font-family="Virgil, Segoe UI Emoji" font-size="20px" fill="#1e1e1e" text-anchor="middle" style="white-space: pre;" direction="ltr" dominant-baseline="text-before-edge">WsWritedataToClient</text></g><g stroke-linecap="round"><g transform="translate(1265.528040501978 841.7038631228997) rotate(0 46.46834037675647 0.6609136741581096)"><path d="M0.68 0.22 C16.23 0.26, 78.14 0.44, 93.36 0.65 M-0.42 -0.72 C15.02 -0.53, 77.57 2.02, 92.78 2.04" stroke="#1e1e1e" stroke-width="1" fill="none"></path></g><g transform="translate(1265.528040501978 841.7038631228997) rotate(0 46.46834037675647 0.6609136741581096)"><path d="M64.71 12.79 C72.55 7.39, 82.57 5.87, 93.73 3.34 M64.83 11.47 C76.26 8.55, 86.1 3.82, 93.6 2.99" stroke="#1e1e1e" stroke-width="1" fill="none"></path></g><g transform="translate(1265.528040501978 841.7038631228997) rotate(0 46.46834037675647 0.6609136741581096)"><path d="M65.2 -7.72 C72.95 -6.86, 82.83 -2.1, 93.73 3.34 M65.32 -9.04 C76.76 -3.93, 86.41 -0.61, 93.6 2.99" stroke="#1e1e1e" stroke-width="1" fill="none"></path></g></g><mask></mask><g stroke-linecap="round" transform="translate(1370.4731531286088 822.3284190695313) rotate(0 146 25.5)"><path d="M12.75 0 M12.75 0 C84.62 2.07, 158.15 1.36, 279.25 0 M12.75 0 C74.27 -2, 135.59 -0.63, 279.25 0 M279.25 0 C289.07 0.4, 292.61 3.46, 292 12.75 M279.25 0 C286.94 -0.72, 293.31 6.17, 292 12.75 M292 12.75 C291.38 21.08, 291.37 31.9, 292 38.25 M292 12.75 C291.49 21.83, 291.81 32.26, 292 38.25 M292 38.25 C290.35 46.17, 289.53 52.7, 279.25 51 M292 38.25 C292.68 45.92, 289.75 51.2, 279.25 51 M279.25 51 C221.09 50.57, 163.84 49.77, 12.75 51 M279.25 51 C209.85 52.78, 141.34 53.12, 12.75 51 M12.75 51 C2.99 49.85, -0.12 47, 0 38.25 M12.75 51 C4.59 50.78, 1.69 46.08, 0 38.25 M0 38.25 C1.06 28.41, 0.45 20.08, 0 12.75 M0 38.25 C0.69 28.57, -0.8 17.99, 0 12.75 M0 12.75 C-1.13 2.71, 4.02 1.11, 12.75 0 M0 12.75 C0.96 2.6, 5.98 1.4, 12.75 0" stroke="#1e1e1e" stroke-width="1" fill="none"></path></g><g transform="translate(1452.6732187414018 835.3284190695313) rotate(0 63.79993438720703 12.5)"><text x="63.79993438720703" y="0" font-family="Virgil, Segoe UI Emoji" font-size="20px" fill="#1e1e1e" text-anchor="middle" style="white-space: pre;" direction="ltr" dominant-baseline="text-before-edge">PushMessage</text></g><g transform="translate(1362.3851659205047 780.2240489523429) rotate(0 214.32989501953125 12.5)"><text x="0" y="0" font-family="Virgil, Segoe UI Emoji" font-size="20px" fill="#1e1e1e" text-anchor="start" style="white-space: pre;" direction="ltr" dominant-baseline="text-before-edge">将容器port的date写入到缓冲区buf message中</text></g><g stroke-linecap="round" transform="translate(742.6709150834511 1010.5097893959819) rotate(0 276 38)"><path d="M19 0 M19 0 C200.91 -0.24, 383.23 -0.75, 533 0 M19 0 C138.21 1.49, 258.08 1.45, 533 0 M533 0 C544.84 1.12, 551.7 6.38, 552 19 M533 0 C545.59 0.09, 553.87 4.44, 552 19 M552 19 C552.79 28.29, 552.96 36.44, 552 57 M552 19 C551.69 30.69, 551.33 42.93, 552 57 M552 57 C553.23 68.63, 545 76.44, 533 76 M552 57 C550.36 67.52, 545.77 76.41, 533 76 M533 76 C365.49 75.69, 197.34 75.12, 19 76 M533 76 C405.93 75.84, 279.1 76, 19 76 M19 76 C6.06 74.48, 0.38 68.11, 0 57 M19 76 C8.53 77.88, -0.64 68.43, 0 57 M0 57 C-1.1 46.54, -1.39 35.1, 0 19 M0 57 C-0.24 47.99, -0.93 39.05, 0 19 M0 19 C0.71 4.5, 4.84 1.04, 19 0 M0 19 C0.08 5.37, 7.67 1.54, 19 0" stroke="#1e1e1e" stroke-width="1" fill="none"></path></g><g transform="translate(823.6610273881386 1036.009789395982) rotate(0 195.0098876953125 12.5)"><text x="195.0098876953125" y="0" font-family="Virgil, Segoe UI Emoji" font-size="20px" fill="#1e1e1e" text-anchor="middle" style="white-space: pre;" direction="ltr" dominant-baseline="text-before-edge">LWS_CALLBACK_SERVER_WRITEABLE</text></g><g stroke-linecap="round"><g transform="translate(565.4808641540203 624.1635882609635) rotate(0 44.22404378570451 195.55804799875273)"><path d="M-0.54 -0.26 C14.15 65.28, 73.99 327.42, 88.98 392.56 M1.38 -1.44 C15.82 63.84, 73.4 325.47, 87.97 390.94" stroke="#1e1e1e" stroke-width="1" fill="none"></path></g><g transform="translate(565.4808641540203 624.1635882609635) rotate(0 44.22404378570451 195.55804799875273)"><path d="M71.43 365.41 C79.33 375.65, 82.08 383.43, 86.18 391.58 M72.53 366.2 C76.92 371.47, 80.4 377.84, 87.39 391.35" stroke="#1e1e1e" stroke-width="1" fill="none"></path></g><g transform="translate(565.4808641540203 624.1635882609635) rotate(0 44.22404378570451 195.55804799875273)"><path d="M91.47 360.98 C91.85 372.78, 87.11 382.23, 86.18 391.58 M92.57 361.76 C91.79 368.07, 90.1 375.58, 87.39 391.35" stroke="#1e1e1e" stroke-width="1" fill="none"></path></g></g><mask></mask><g transform="translate(140.90518203185138 528.0420427453591) rotate(0 138.5899658203125 12.5)"><text x="0" y="0" font-family="Virgil, Segoe UI Emoji" font-size="20px" fill="#1e1e1e" text-anchor="start" style="white-space: pre;" direction="ltr" dominant-baseline="text-before-edge">连接之后才能开启callback响应</text></g><g stroke-linecap="round"><g transform="translate(1302.7697912064657 1046.14960548226) rotate(0 44.5807188915096 0.9373018982651047)"><path d="M-0.24 0.9 C14.92 0.8, 75.78 0.24, 90.99 0.19 M-1.83 0.33 C13.13 0.35, 74.51 1.41, 89.81 1.69" stroke="#1e1e1e" stroke-width="1" fill="none"></path></g><g transform="translate(1302.7697912064657 1046.14960548226) rotate(0 44.5807188915096 0.9373018982651047)"><path d="M62.95 10.72 C69.89 7.8, 79.13 4.12, 89.62 2.97 M62.34 10.79 C67.36 8.57, 73.98 6.31, 90.45 2.61" stroke="#1e1e1e" stroke-width="1" fill="none"></path></g><g transform="translate(1302.7697912064657 1046.14960548226) rotate(0 44.5807188915096 0.9373018982651047)"><path d="M63.3 -9.8 C70.28 -6.48, 79.4 -3.91, 89.62 2.97 M62.7 -9.73 C67.55 -7.38, 74.1 -5.07, 90.45 2.61" stroke="#1e1e1e" stroke-width="1" fill="none"></path></g></g><mask></mask><g stroke-linecap="round" transform="translate(1406.4840594821355 1024.8250111197576) rotate(0 146 25.5)"><path d="M12.75 0 M12.75 0 C87.25 0.19, 162.31 -0.37, 279.25 0 M12.75 0 C89.8 1.95, 168.22 1.1, 279.25 0 M279.25 0 C286.87 -1.2, 291.74 2.88, 292 12.75 M279.25 0 C289.23 2.12, 292.98 1.95, 292 12.75 M292 12.75 C290.41 21.76, 292.08 33.12, 292 38.25 M292 12.75 C291.72 20.18, 292.89 29.83, 292 38.25 M292 38.25 C290.64 46.27, 289.42 51.57, 279.25 51 M292 38.25 C292.46 46.22, 285.83 48.7, 279.25 51 M279.25 51 C212.4 50.58, 148.8 50.59, 12.75 51 M279.25 51 C213.52 53.67, 147.75 53.75, 12.75 51 M12.75 51 C3.56 51.7, -0.41 45.24, 0 38.25 M12.75 51 C6.51 53.19, -0.27 45.77, 0 38.25 M0 38.25 C1.91 30.04, 0.6 23.25, 0 12.75 M0 38.25 C1.11 32.24, 0.21 25.4, 0 12.75 M0 12.75 C1.6 2.66, 3.92 1.67, 12.75 0 M0 12.75 C-1.13 4.61, 2.11 -0.24, 12.75 0" stroke="#1e1e1e" stroke-width="1" fill="none"></path></g><g transform="translate(1494.2641192965887 1037.8250111197576) rotate(0 58.219940185546875 12.5)"><text x="58.219940185546875" y="0" font-family="Virgil, Segoe UI Emoji" font-size="20px" fill="#1e1e1e" text-anchor="middle" style="white-space: pre;" direction="ltr" dominant-baseline="text-before-edge">PopMessage</text></g><g transform="translate(1399.6269166249926 985.1821888541326) rotate(0 220.429931640625 12.5)"><text x="0" y="0" font-family="Virgil, Segoe UI Emoji" font-size="20px" fill="#1e1e1e" text-anchor="start" style="white-space: pre;" direction="ltr" dominant-baseline="text-before-edge">将缓冲区buf message中第一个元素写入给客户端</text></g><g stroke-linecap="round"><g transform="translate(1506.3224780434773 882.1958701191579) rotate(0 -0.5985913781003376 50.992261962568136)"><path d="M0.17 -1.18 C-0.14 15.88, -1.6 84.89, -1.74 102.23 M-1.2 0.82 C-1.14 17.99, 0.55 85.98, 0.54 103.16" stroke="#1e1e1e" stroke-width="1" fill="none"></path></g><g transform="translate(1506.3224780434773 882.1958701191579) rotate(0 -0.5985913781003376 50.992261962568136)"><path d="M-12.07 73.73 C-8.77 84.2, -4.39 91.47, 0.37 101.35 M-10.43 75.91 C-7.18 86.57, -2.09 95.23, 1.27 103.58" stroke="#1e1e1e" stroke-width="1" fill="none"></path></g><g transform="translate(1506.3224780434773 882.1958701191579) rotate(0 -0.5985913781003376 50.992261962568136)"><path d="M8.45 73.45 C5.41 84.03, 3.45 91.4, 0.37 101.35 M10.09 75.63 C5.66 86.4, 3.08 95.17, 1.27 103.58" stroke="#1e1e1e" stroke-width="1" fill="none"></path></g></g><mask></mask><g transform="translate(1685.7256776373204 840.9651196684363) rotate(0 20 12.5)"><text x="0" y="0" font-family="Virgil, Segoe UI Emoji" font-size="20px" fill="#1e1e1e" text-anchor="start" style="white-space: pre;" direction="ltr" dominant-baseline="text-before-edge">生产</text></g><g mask="url(#mask-hXTifWRT7IDcPTaDJBNWb)" stroke-linecap="round"><g transform="translate(1705.5718690435706 1048.9621225549754) rotate(0 98.6208224794579 -0.5241014404141424)"><path d="M0.56 -0.75 C33.55 -0.89, 165.17 -0.53, 197.85 -0.78 M-0.61 1.47 C32.27 0.98, 163.86 -2.05, 197.15 -2.52" stroke="#1e1e1e" stroke-width="1" fill="none"></path></g><g transform="translate(1705.5718690435706 1048.9621225549754) rotate(0 98.6208224794579 -0.5241014404141424)"><path d="M167.91 9.05 C178.52 3.74, 184.22 0.18, 195.36 -3.72 M169.14 8.01 C177.41 5.59, 187.63 1.13, 197.4 -2.91" stroke="#1e1e1e" stroke-width="1" fill="none"></path></g><g transform="translate(1705.5718690435706 1048.9621225549754) rotate(0 98.6208224794579 -0.5241014404141424)"><path d="M167.52 -11.46 C178.25 -10.79, 184.07 -8.37, 195.36 -3.72 M168.75 -12.51 C177.02 -8.42, 187.36 -6.38, 197.4 -2.91" stroke="#1e1e1e" stroke-width="1" fill="none"></path></g></g><mask id="mask-hXTifWRT7IDcPTaDJBNWb"><rect x="0" y="0" fill="#fff" width="2002.9563717478973" height="1150.4601324168352"></rect><rect x="1784.2641203957337" y="1035.7131176240455" fill="#000" width="40" height="25" opacity="1"></rect></mask><g transform="translate(1784.2641203957337 1035.7131176240455) rotate(0 19.92857112729456 12.724903490515771)"><text x="20" y="0" font-family="Virgil, Segoe UI Emoji" font-size="20px" fill="#1e1e1e" text-anchor="middle" style="white-space: pre;" direction="ltr" dominant-baseline="text-before-edge">消费</text></g><g stroke-linecap="round" transform="translate(1910.3408744522242 1006.0420239653122) rotate(0 120 30)"><path d="M15 0 M15 0 C68.37 -1.28, 126.04 0.44, 225 0 M15 0 C85.73 1.28, 158 2.31, 225 0 M225 0 C233.47 1.14, 240.97 3.7, 240 15 M225 0 C235.16 1.87, 239.32 3.48, 240 15 M240 15 C238.74 24.32, 239.43 34.19, 240 45 M240 15 C239.8 20.69, 240.65 27.55, 240 45 M240 45 C239.13 53.21, 236.76 59.24, 225 60 M240 45 C239.48 55.16, 236.65 60.81, 225 60 M225 60 C180.22 57.52, 136.22 57.25, 15 60 M225 60 C149.87 60.56, 74.07 60.55, 15 60 M15 60 C6.15 60.42, 1.42 54.18, 0 45 M15 60 C6.15 58.62, 1.11 56.77, 0 45 M0 45 C-0.8 37.74, 0.01 26.26, 0 15 M0 45 C-0.83 35.69, -0.28 26.81, 0 15 M0 15 C1.94 4.88, 5.06 -0.06, 15 0 M0 15 C0.23 6.75, 2.9 0.78, 15 0" stroke="#1e1e1e" stroke-width="1" fill="none"></path></g><g transform="translate(1984.2309196182398 1023.5420239653122) rotate(0 46.109954833984375 12.5)"><text x="46.109954833984375" y="0" font-family="Virgil, Segoe UI Emoji" font-size="20px" fill="#1e1e1e" text-anchor="middle" style="white-space: pre;" direction="ltr" dominant-baseline="text-before-edge">lws_write</text></g><g stroke-linecap="round" transform="translate(2128.023982443915 140.34503863185182) rotate(0 150.5 57)"><path d="M28.5 0 M28.5 0 C118.34 1.37, 211.16 -0.14, 272.5 0 M28.5 0 C98.69 0.26, 167.48 -0.26, 272.5 0 M272.5 0 C293.24 -0.54, 299.38 7.76, 301 28.5 M272.5 0 C289.73 -2.09, 300.61 7.43, 301 28.5 M301 28.5 C301.4 43.79, 299.99 58.01, 301 85.5 M301 28.5 C300.8 45.3, 301.91 60.97, 301 85.5 M301 85.5 C300.89 102.86, 291.78 112.49, 272.5 114 M301 85.5 C299.79 103.72, 293.51 113.88, 272.5 114 M272.5 114 C182.05 114.47, 92.62 115.47, 28.5 114 M272.5 114 C210.78 113.63, 148.17 114.44, 28.5 114 M28.5 114 C9.59 112.81, 1.38 103.39, 0 85.5 M28.5 114 C9.42 114.6, 1.67 102.33, 0 85.5 M0 85.5 C-1.52 69.36, 1.67 54.7, 0 28.5 M0 85.5 C0.48 71.84, -0.65 56.47, 0 28.5 M0 28.5 C-1.1 7.55, 10.04 -1.15, 28.5 0 M0 28.5 C1.3 11.54, 9.37 2.2, 28.5 0" stroke="#1e1e1e" stroke-width="1" fill="none"></path></g><g transform="translate(2157.214099326239 184.84503863185182) rotate(0 121.30988311767578 12.5)"><text x="121.30988311767578" y="0" font-family="Virgil, Segoe UI Emoji" font-size="20px" fill="#1e1e1e" text-anchor="middle" style="white-space: pre;" direction="ltr" dominant-baseline="text-before-edge">WebsocketServer::Receive</text></g><g stroke-linecap="round"><g transform="translate(2290.3269664606773 255.72889242860856) rotate(0 0.26602102230367564 37.191923616199574)"><path d="M0.89 -0.55 C0.99 11.83, 0.69 61.17, 0.78 73.38 M-0.1 1.77 C-0.2 14.45, -0.49 62.95, -0.33 74.94" stroke="#1e1e1e" stroke-width="1" fill="none"></path></g><g transform="translate(2290.3269664606773 255.72889242860856) rotate(0 0.26602102230367564 37.191923616199574)"><path d="M-11.57 46.25 C-7.56 56.11, -5.47 63.38, 0.56 75.03 M-10.69 47.03 C-7.25 52.66, -5.76 60.84, -0.07 74.31" stroke="#1e1e1e" stroke-width="1" fill="none"></path></g><g transform="translate(2290.3269664606773 255.72889242860856) rotate(0 0.26602102230367564 37.191923616199574)"><path d="M8.95 46.2 C6.52 56.23, 2.18 63.51, 0.56 75.03 M9.84 46.98 C8.33 52.51, 4.88 60.7, -0.07 74.31" stroke="#1e1e1e" stroke-width="1" fill="none"></path></g></g><mask></mask><g stroke-linecap="round" transform="translate(1224.791209154379 145.13299140173876) rotate(0 110.5 51)"><path d="M25.5 0 M25.5 0 C76.13 1.09, 126.47 1.04, 195.5 0 M25.5 0 C78.54 -1.67, 130.88 -2.2, 195.5 0 M195.5 0 C214.28 0.05, 222.41 10.38, 221 25.5 M195.5 0 C211.69 -1.23, 223.07 6.86, 221 25.5 M221 25.5 C220.13 39.93, 222.35 53.6, 221 76.5 M221 25.5 C220.87 44.17, 221.71 64.14, 221 76.5 M221 76.5 C222.13 94.8, 214.16 103.06, 195.5 102 M221 76.5 C221.19 91.23, 211.14 100.91, 195.5 102 M195.5 102 C127.62 100.06, 61.69 100.9, 25.5 102 M195.5 102 C154.96 104.26, 114.1 103.74, 25.5 102 M25.5 102 C7.9 102.19, -0.84 95.33, 0 76.5 M25.5 102 C7.5 103.43, 0.69 91.71, 0 76.5 M0 76.5 C-1.49 62.89, 0.82 51.37, 0 25.5 M0 76.5 C-0.01 60.74, 1.35 44.83, 0 25.5 M0 25.5 C-0.61 8.64, 9.13 -1.29, 25.5 0 M0 25.5 C1.46 7.09, 7.4 1.33, 25.5 0" stroke="#1e1e1e" stroke-width="1" fill="none"></path></g><g transform="translate(1240.6112241079923 183.63299140173876) rotate(0 94.67998504638672 12.5)"><text x="94.67998504638672" y="0" font-family="Virgil, Segoe UI Emoji" font-size="20px" fill="#1e1e1e" text-anchor="middle" style="white-space: pre;" direction="ltr" dominant-baseline="text-before-edge">服务端收到data事件</text></g><g stroke-linecap="round"><g transform="translate(1135.291209154379 191.2845250487553) rotate(0 43.754953076062165 1.403183753044459)"><path d="M0.12 -0.71 C14.78 -0.36, 73.9 1.54, 88.78 2.13 M-1.27 1.53 C13.18 2.06, 72.93 3.66, 87.99 3.51" stroke="#1e1e1e" stroke-width="1" fill="none"></path></g><g transform="translate(1135.291209154379 191.2845250487553) rotate(0 43.754953076062165 1.403183753044459)"><path d="M58.5 13.95 C69.65 11.25, 81.22 7.13, 88.67 4.26 M59.16 14.16 C67.46 11.12, 76.84 7.37, 87.58 3.68" stroke="#1e1e1e" stroke-width="1" fill="none"></path></g><g transform="translate(1135.291209154379 191.2845250487553) rotate(0 43.754953076062165 1.403183753044459)"><path d="M58.73 -6.57 C69.8 -1.68, 81.28 1.78, 88.67 4.26 M59.39 -6.36 C67.74 -3.08, 77.04 -0.5, 87.58 3.68" stroke="#1e1e1e" stroke-width="1" fill="none"></path></g></g><mask></mask><g stroke-linecap="round"><g transform="translate(2055.3101258381093 377.40223220562893) rotate(0 -86.65745687816735 -2.1970824097795685)"><path d="M0.28 0.41 C-28.49 -0.31, -144.88 -2.28, -173.59 -3.16 M-1.04 -0.42 C-29.35 -0.96, -142.8 -4.2, -171.36 -4.8" stroke="#1e1e1e" stroke-width="1" fill="none"></path></g><g transform="translate(2055.3101258381093 377.40223220562893) rotate(0 -86.65745687816735 -2.1970824097795685)"><path d="M-142.24 -15.88 C-147.56 -11.04, -156.71 -10.09, -170.32 -4.32 M-143.32 -14.49 C-152.74 -11.71, -161.68 -8.53, -170.37 -4.49" stroke="#1e1e1e" stroke-width="1" fill="none"></path></g><g transform="translate(2055.3101258381093 377.40223220562893) rotate(0 -86.65745687816735 -2.1970824097795685)"><path d="M-142.76 4.63 C-148.16 4.96, -157.2 1.39, -170.32 -4.32 M-143.84 6.02 C-153.01 2.16, -161.78 -1.31, -170.37 -4.49" stroke="#1e1e1e" stroke-width="1" fill="none"></path></g></g><mask></mask><g stroke-linecap="round" transform="translate(1319.946613645721 319.4178591219097) rotate(0 278 49.5)"><path d="M24.75 0 M24.75 0 C191.95 0.91, 360.69 0.64, 531.25 0 M24.75 0 C201.63 -1.74, 377.89 -1.72, 531.25 0 M531.25 0 C549.26 0.98, 554.05 8.32, 556 24.75 M531.25 0 C549.65 2.16, 558.23 9.12, 556 24.75 M556 24.75 C557.53 39.7, 557.35 55.54, 556 74.25 M556 24.75 C555.3 35.84, 555.99 49.36, 556 74.25 M556 74.25 C556.91 92.74, 548.06 99.15, 531.25 99 M556 74.25 C554.73 90, 548.47 97.75, 531.25 99 M531.25 99 C403.47 100.85, 273.69 100.66, 24.75 99 M531.25 99 C400.54 98.07, 269.78 97.92, 24.75 99 M24.75 99 C8.68 97.79, -0.84 88.83, 0 74.25 M24.75 99 C7.36 98.78, -2.04 93, 0 74.25 M0 74.25 C-2.11 62.04, -2.01 49.92, 0 24.75 M0 74.25 C-0.05 61.03, -0.26 48.74, 0 24.75 M0 24.75 C-1.06 9.74, 8.13 0.59, 24.75 0 M0 24.75 C0.9 7.27, 6.13 1.74, 24.75 0" stroke="#1e1e1e" stroke-width="1" fill="none"></path></g><g transform="translate(1406.6267283918148 356.4178591219097) rotate(0 191.31988525390625 12.5)"><text x="191.31988525390625" y="0" font-family="Virgil, Segoe UI Emoji" font-size="20px" fill="#1e1e1e" text-anchor="middle" style="white-space: pre;" direction="ltr" dominant-baseline="text-before-edge">session.pipes[0]收到date，触发epoll事件</text></g><g stroke-linecap="round"><g transform="translate(1314.0723371803554 376.0782695783828) rotate(0 -103.85859750669263 1.8023890398844742)"><path d="M0.08 0.37 C-34.66 0.84, -173.24 2.37, -207.8 2.97 M-1.34 -0.48 C-35.74 0.11, -170.94 3.12, -205.39 4.08" stroke="#1e1e1e" stroke-width="1" fill="none"></path></g><g transform="translate(1314.0723371803554 376.0782695783828) rotate(0 -103.85859750669263 1.8023890398844742)"><path d="M-176.84 -7.84 C-188.7 -3.02, -197.02 1.19, -206.58 4.54 M-178.17 -7.29 C-186.91 -3.83, -196.41 0.39, -205.78 4.58" stroke="#1e1e1e" stroke-width="1" fill="none"></path></g><g transform="translate(1314.0723371803554 376.0782695783828) rotate(0 -103.85859750669263 1.8023890398844742)"><path d="M-176.34 12.68 C-188.4 10.21, -196.9 7.13, -206.58 4.54 M-177.66 13.23 C-186.76 9.99, -196.43 7.53, -205.78 4.58" stroke="#1e1e1e" stroke-width="1" fill="none"></path></g></g><mask></mask><g stroke-linecap="round" transform="translate(765.3749380272318 342.45771362572214) rotate(0 164 39)"><path d="M5.19 4.51 C5.19 4.51, 5.19 4.51, 5.19 4.51 M5.19 4.51 C5.19 4.51, 5.19 4.51, 5.19 4.51 M3.62 12.42 C6.44 10.59, 7.29 8, 12.15 2.61 M3.62 12.42 C5.77 10.26, 7.47 7.23, 12.15 2.61 M1.39 21.08 C7.48 15.1, 11.28 9.62, 19.76 -0.05 M1.39 21.08 C7.57 13.83, 14.4 6.42, 19.76 -0.05 M1.78 26.72 C11.57 17.68, 18.16 4.96, 24.74 0.31 M1.78 26.72 C10.88 18.04, 17.49 7.87, 24.74 0.31 M2.18 32.37 C14.24 19.89, 22.92 7.64, 30.39 -0.09 M2.18 32.37 C8.06 24.72, 13.95 17.36, 30.39 -0.09 M1.92 38.77 C15.38 26.22, 23.6 10.87, 35.37 0.27 M1.92 38.77 C13.33 24.88, 23.14 12.88, 35.37 0.27 M2.31 44.41 C13.04 33.69, 21.85 18.51, 41.02 -0.12 M2.31 44.41 C14.45 29.8, 26 16.46, 41.02 -0.12 M2.05 50.81 C12.4 36.69, 24.39 23.82, 46 0.24 M2.05 50.81 C12.91 38.54, 25.51 23.8, 46 0.24 M2.44 56.45 C16.78 42.77, 30.76 26.52, 51.65 -0.15 M2.44 56.45 C17.78 39.79, 32.85 21.97, 51.65 -0.15 M2.84 62.09 C23.1 39.78, 39.97 18.76, 56.63 0.21 M2.84 62.09 C15.04 49.38, 24.96 35.27, 56.63 0.21 M2.58 68.49 C16.13 53.94, 30.06 38.19, 62.28 -0.19 M2.58 68.49 C15.42 53.25, 28.07 38.34, 62.28 -0.19 M4.94 71.87 C18.65 54.85, 34.06 34.16, 67.26 0.17 M4.94 71.87 C29.71 42.81, 53.94 15.78, 67.26 0.17 M7.96 74.49 C32.7 46.06, 55.66 20.88, 72.25 0.53 M7.96 74.49 C20.14 59.58, 33.37 44.62, 72.25 0.53 M10.32 77.87 C24.83 58.65, 40.36 41.05, 77.89 0.14 M10.32 77.87 C27.07 57.9, 42.99 38.9, 77.89 0.14 M15.31 78.23 C30.43 63.93, 44.57 47.81, 82.88 0.5 M15.31 78.23 C35.47 56.38, 52.97 34.71, 82.88 0.5 M20.95 77.84 C38.97 56.32, 58.31 35.78, 88.52 0.1 M20.95 77.84 C42.92 53.81, 63.38 28.81, 88.52 0.1 M25.94 78.2 C49.01 49.58, 73.35 22.63, 93.51 0.46 M25.94 78.2 C43.88 59.74, 60.31 39.41, 93.51 0.46 M31.58 77.8 C56.52 49.19, 83.71 19.59, 99.15 0.07 M31.58 77.8 C56.02 49.13, 80.61 21.03, 99.15 0.07 M36.57 78.16 C56.03 54.17, 79.21 28.58, 104.14 0.43 M36.57 78.16 C61.52 47.58, 85.75 19.25, 104.14 0.43 M42.21 77.77 C69.1 47.03, 93.01 19.78, 109.78 0.03 M42.21 77.77 C62.58 53.19, 82.16 30.36, 109.78 0.03 M47.2 78.13 C70.78 50.28, 95.84 22.05, 114.77 0.39 M47.2 78.13 C68.15 55.02, 88.53 31.18, 114.77 0.39 M52.18 78.49 C68.62 60.49, 85.23 41.27, 120.41 0 M52.18 78.49 C67.9 60.88, 82.16 45.34, 120.41 0 M57.83 78.09 C83.83 50.34, 107.84 19.12, 125.4 0.36 M57.83 78.09 C81.25 51.91, 105.4 24.26, 125.4 0.36 M62.81 78.45 C84.65 57.92, 102.92 36.69, 131.04 -0.04 M62.81 78.45 C88.01 50.85, 111.72 20.82, 131.04 -0.04 M68.46 78.06 C82.25 62.07, 100.27 43.69, 136.03 0.32 M68.46 78.06 C92.74 49.5, 117.02 21.86, 136.03 0.32 M73.44 78.42 C96.79 48.46, 124.64 18.47, 141.67 -0.07 M73.44 78.42 C99.81 48.36, 124.34 20.64, 141.67 -0.07 M79.09 78.03 C95.07 58.88, 109.9 43.01, 146.66 0.29 M79.09 78.03 C101.49 51.73, 122.26 28.05, 146.66 0.29 M84.07 78.39 C109.09 51.46, 132.45 22.17, 152.31 -0.1 M84.07 78.39 C99.44 60.75, 114.93 43.29, 152.31 -0.1 M89.72 77.99 C107.29 57.86, 122.33 39.61, 157.29 0.26 M89.72 77.99 C112.73 51.23, 136.32 23.89, 157.29 0.26 M94.71 78.35 C109.8 63.91, 122.67 45.94, 162.28 0.62 M94.71 78.35 C116.27 52.55, 136.56 29.22, 162.28 0.62 M100.35 77.96 C113.26 59.6, 131.24 44.29, 167.92 0.22 M100.35 77.96 C112.44 61.85, 127.44 46.76, 167.92 0.22 M105.34 78.32 C122.86 56.34, 142.21 38.27, 172.91 0.58 M105.34 78.32 C129.07 50.86, 152.47 21.58, 172.91 0.58 M110.98 77.92 C123.84 63.05, 136.25 47.16, 178.55 0.19 M110.98 77.92 C130.25 56.28, 148.49 36.04, 178.55 0.19 M115.97 78.28 C130.47 59.9, 147.61 44.14, 183.54 0.55 M115.97 78.28 C135.2 57.35, 153.49 34.91, 183.54 0.55 M121.61 77.89 C146.36 50.62, 168.18 22.56, 189.18 0.15 M121.61 77.89 C146.36 48, 171.64 18.62, 189.18 0.15 M126.6 78.25 C149.33 52.17, 173.98 24.69, 194.17 0.51 M126.6 78.25 C149.45 53.01, 172.18 27.46, 194.17 0.51 M131.58 78.61 C154.13 51.59, 176.92 23.04, 199.81 0.12 M131.58 78.61 C151.6 54.57, 174.38 28.99, 199.81 0.12 M137.23 78.21 C149.37 63.85, 165.68 45.22, 204.8 0.48 M137.23 78.21 C164.11 48.47, 189.47 16.14, 204.8 0.48 M142.21 78.57 C163.69 54.14, 188.66 26.52, 210.44 0.08 M142.21 78.57 C166.6 49.53, 191.7 21.27, 210.44 0.08 M147.86 78.18 C174.7 47.94, 200.14 16.23, 215.43 0.44 M147.86 78.18 C165.28 58.26, 183.18 37.49, 215.43 0.44 M152.84 78.54 C179.79 45.74, 206.48 17.85, 221.07 0.05 M152.84 78.54 C176.75 50.2, 201.35 21.62, 221.07 0.05 M158.49 78.14 C183.61 46.96, 209.97 15.89, 226.06 0.41 M158.49 78.14 C181.48 50.76, 203.98 25.14, 226.06 0.41 M163.47 78.5 C184.83 53.58, 206.32 29.94, 231.7 0.01 M163.47 78.5 C178.41 60.7, 195.09 41.32, 231.7 0.01 M169.12 78.11 C189.55 55.53, 210.79 32.45, 236.69 0.37 M169.12 78.11 C194.03 49.61, 219.93 20.31, 236.69 0.37 M174.1 78.47 C199.54 48.99, 223.31 21.34, 242.33 -0.02 M174.1 78.47 C190.06 60.72, 206.54 41.62, 242.33 -0.02 M179.75 78.07 C201.26 55.15, 223.57 29.92, 247.32 0.34 M179.75 78.07 C200.32 52.66, 222.52 28.86, 247.32 0.34 M184.73 78.43 C209.62 51.47, 231.09 26.84, 252.31 0.7 M184.73 78.43 C208.05 51.58, 231.03 25.01, 252.31 0.7 M190.38 78.04 C204.59 59.8, 222.71 44.52, 257.95 0.31 M190.38 78.04 C206.38 59.57, 222.52 42.55, 257.95 0.31 M195.36 78.4 C218.91 51.62, 241.36 24.66, 262.94 0.67 M195.36 78.4 C213.77 58.44, 232.42 36.59, 262.94 0.67 M201.01 78.01 C224.62 49.94, 246.89 24.71, 268.58 0.27 M201.01 78.01 C216.35 61.73, 230.68 42.82, 268.58 0.27 M205.99 78.37 C228 51.93, 250.92 26.15, 273.57 0.63 M205.99 78.37 C219.4 62.62, 233.22 47.03, 273.57 0.63 M211.64 77.97 C225.16 62.95, 238.86 46.68, 279.21 0.24 M211.64 77.97 C233.04 53.85, 253.54 30.11, 279.21 0.24 M216.62 78.33 C233.29 57.89, 248.62 41.85, 284.2 0.6 M216.62 78.33 C236.81 54.86, 258.23 30.09, 284.2 0.6 M221.61 78.69 C248.74 48.5, 273.9 17.77, 289.84 0.2 M221.61 78.69 C242.97 53.84, 265.92 27.29, 289.84 0.2 M227.25 78.3 C245.46 58.88, 261.76 35.44, 294.83 0.56 M227.25 78.3 C242.67 60.57, 259.8 40.86, 294.83 0.56 M232.24 78.66 C254.76 53.54, 277.67 25.43, 300.47 0.17 M232.24 78.66 C247.45 59.83, 263.35 42.42, 300.47 0.17 M237.88 78.26 C259.73 55.15, 280.62 29.51, 305.46 0.53 M237.88 78.26 C262.56 49.24, 287.73 20.14, 305.46 0.53 M242.87 78.62 C267.78 49.76, 293.95 19.48, 311.1 0.13 M242.87 78.62 C270.57 49.3, 296 18.64, 311.1 0.13 M248.51 78.23 C262 59.54, 279.06 43.88, 314.78 2 M248.51 78.23 C274.86 49.24, 301.27 18.42, 314.78 2 M253.5 78.59 C266.55 61.38, 282.3 46.98, 318.45 3.87 M253.5 78.59 C273.69 56.31, 292.57 33.57, 318.45 3.87 M259.14 78.19 C279.52 57.57, 296.79 36.89, 322.78 4.99 M259.14 78.19 C281.58 52.56, 305.54 25.74, 322.78 4.99 M264.13 78.55 C283.14 58.18, 303.45 37.33, 325.8 7.61 M264.13 78.55 C283.08 57.07, 301.19 37.81, 325.8 7.61 M269.77 78.16 C290.19 57.29, 305.88 33.3, 327.51 11.74 M269.77 78.16 C291.48 54.55, 312.56 30.79, 327.51 11.74 M274.76 78.52 C290.41 61.37, 307.33 43.14, 328.56 16.63 M274.76 78.52 C285.85 66.94, 295.49 53.48, 328.56 16.63 M280.4 78.12 C292.66 61.69, 310.43 43.71, 329.61 21.52 M280.4 78.12 C294.81 60.39, 309.23 44.64, 329.61 21.52 M285.39 78.48 C300.77 64.14, 313.13 46.12, 330 27.16 M285.39 78.48 C298.1 65.61, 310.66 50.57, 330 27.16 M291.03 78.09 C305.07 58.58, 321.3 42.41, 329.74 33.56 M291.03 78.09 C303.45 63.21, 317.17 49.08, 329.74 33.56 M296.02 78.45 C305.75 64.62, 317.37 56.56, 329.48 39.96 M296.02 78.45 C307.21 65.87, 315.95 55.52, 329.48 39.96 M301.66 78.06 C308.87 69.55, 313.35 64.73, 329.87 45.6 M301.66 78.06 C311.69 65.21, 322.42 54.81, 329.87 45.6 M306.65 78.42 C314.3 68.63, 322.56 59.11, 329.61 52 M306.65 78.42 C313.64 71.11, 319.27 63.61, 329.61 52 M310.98 79.53 C315.31 71.7, 322.85 64.41, 329.35 58.4 M310.98 79.53 C315.84 74.09, 319.78 69.25, 329.35 58.4 M317.94 77.63 C321.39 73.09, 322.5 72.86, 329.09 64.8 M317.94 77.63 C321.07 72.76, 324.5 69.2, 329.09 64.8" stroke="#ffec99" stroke-width="0.5" fill="none"></path><path d="M19.5 0 M19.5 0 C120.31 -0.62, 222.03 -0.23, 308.5 0 M19.5 0 C91.73 0.76, 162.39 0.71, 308.5 0 M308.5 0 C320.13 -0.96, 328.8 5.46, 328 19.5 M308.5 0 C320.41 1.61, 327.32 7.92, 328 19.5 M328 19.5 C329.2 31.8, 327.49 41.84, 328 58.5 M328 19.5 C327.28 30.77, 328.55 41.74, 328 58.5 M328 58.5 C327.95 71.57, 323.31 77.67, 308.5 78 M328 58.5 C329.94 71.45, 319.94 75.72, 308.5 78 M308.5 78 C198.25 79.15, 87.77 78.18, 19.5 78 M308.5 78 C211.69 77.47, 115.15 77.4, 19.5 78 M19.5 78 C5.22 78.88, -0.33 72.67, 0 58.5 M19.5 78 C7.46 79.3, 1.9 73.52, 0 58.5 M0 58.5 C-1.28 48.57, 1.56 39.46, 0 19.5 M0 58.5 C0.34 49.34, 0.23 40.47, 0 19.5 M0 19.5 C1.79 6.73, 6.9 -1.92, 19.5 0 M0 19.5 C0.14 6.46, 4.31 -1.74, 19.5 0" stroke="#1e1e1e" stroke-width="1" fill="none"></path></g><g transform="translate(771.5350485008646 356.45771362572214) rotate(0 157.8398895263672 25)"><text x="157.8398895263672" y="0" font-family="Virgil, Segoe UI Emoji" font-size="20px" fill="#1e1e1e" text-anchor="middle" style="white-space: pre;" direction="ltr" dominant-baseline="text-before-edge">epoll将从session.pipes[0]读取的数</text><text x="157.8398895263672" y="25" font-family="Virgil, Segoe UI Emoji" font-size="20px" fill="#1e1e1e" text-anchor="middle" style="white-space: pre;" direction="ltr" dominant-baseline="text-before-edge">据写入到容器port对应的fd中</text></g><g stroke-linecap="round"><g transform="translate(2154.934124615056 1036.8559030528595) rotate(0 46.85762955245531 -0.7571380323402082)"><path d="M1.16 -0.68 C16.15 -1.12, 75.9 -1.02, 91.12 -1.44 M0.31 1.58 C15.58 1.32, 78.11 -2.44, 93.4 -3.09" stroke="#1e1e1e" stroke-width="1" fill="none"></path></g><g transform="translate(2154.934124615056 1036.8559030528595) rotate(0 46.85762955245531 -0.7571380323402082)"><path d="M64.65 7.25 C78.17 4.64, 86.26 -0.69, 91.63 -2.84 M65.11 9.44 C73.84 4.74, 80.54 1.87, 92.56 -3.13" stroke="#1e1e1e" stroke-width="1" fill="none"></path></g><g transform="translate(2154.934124615056 1036.8559030528595) rotate(0 46.85762955245531 -0.7571380323402082)"><path d="M63.58 -13.25 C77.73 -7.7, 86.25 -4.86, 91.63 -2.84 M64.05 -11.06 C73.1 -10.47, 80.08 -8.07, 92.56 -3.13" stroke="#1e1e1e" stroke-width="1" fill="none"></path></g></g><mask></mask><g stroke-linecap="round" transform="translate(2247.879076427662 998.110864852033) rotate(0 133.5 36)"><path d="M4.79 4.16 C4.79 4.16, 4.79 4.16, 4.79 4.16 M4.79 4.16 C4.79 4.16, 4.79 4.16, 4.79 4.16 M1.25 14.34 C3.15 11.65, 6.78 9.38, 11.75 2.26 M1.25 14.34 C4.51 9.71, 8.75 6.14, 11.75 2.26 M0.99 20.73 C6.73 14.51, 10.51 11.34, 18.7 0.36 M0.99 20.73 C7.93 12.28, 15.35 4.78, 18.7 0.36 M1.38 26.38 C6.52 20.27, 13.95 13.76, 23.69 0.72 M1.38 26.38 C7.68 18.41, 13.24 13.24, 23.69 0.72 M1.12 32.77 C8.69 24.32, 10.45 20.08, 29.33 0.32 M1.12 32.77 C11.65 20.91, 23.15 7.96, 29.33 0.32 M0.86 39.17 C10.73 26.68, 18.9 19.39, 34.32 0.68 M0.86 39.17 C12.9 25.67, 24.58 12.87, 34.32 0.68 M1.25 44.82 C14.75 29.72, 29.53 14.79, 39.96 0.29 M1.25 44.82 C16.24 27.26, 30.19 12.27, 39.96 0.29 M0.99 51.21 C10.59 40.52, 19.85 28.5, 44.95 0.65 M0.99 51.21 C15.45 35.76, 28.38 20.58, 44.95 0.65 M1.39 56.86 C21.55 33.47, 40.67 10.36, 50.59 0.25 M1.39 56.86 C19.54 35.72, 38.95 13.7, 50.59 0.25 M3.09 60.99 C16.2 44.59, 34.26 26.42, 55.58 0.61 M3.09 60.99 C23.92 38.74, 42.51 16.46, 55.58 0.61 M4.8 65.12 C25.97 41.04, 45.94 18.82, 61.22 0.22 M4.8 65.12 C18.02 50.46, 31.26 34.8, 61.22 0.22 M6.51 69.26 C20.43 51.42, 37.9 31.89, 66.21 0.58 M6.51 69.26 C23.11 50.33, 39.59 30.63, 66.21 0.58 M10.18 71.13 C22.83 55.56, 39.53 39.6, 71.85 0.18 M10.18 71.13 C29.54 49.29, 49.36 28.46, 71.85 0.18 M15.17 71.49 C29.7 52.3, 43.96 35.74, 76.84 0.54 M15.17 71.49 C30.81 53.34, 46.85 35.24, 76.84 0.54 M18.84 73.36 C35.54 57.69, 50.72 40.44, 82.48 0.15 M18.84 73.36 C40.88 47.85, 62.5 24.21, 82.48 0.15 M24.49 72.96 C46.28 46.71, 66.15 24.32, 87.47 0.51 M24.49 72.96 C41.68 54.12, 59.91 34.02, 87.47 0.51 M29.47 73.32 C39.84 59.69, 52.76 44.91, 92.46 0.87 M29.47 73.32 C53.98 44.37, 79.52 15.27, 92.46 0.87 M35.12 72.93 C47.67 55.97, 64.75 38.35, 98.1 0.48 M35.12 72.93 C57.97 47.5, 78.71 22.3, 98.1 0.48 M40.1 73.29 C53.67 55.81, 70.83 38.3, 103.09 0.84 M40.1 73.29 C61.46 48.09, 84.51 22.87, 103.09 0.84 M45.75 72.89 C64.61 49.42, 88.17 24.82, 108.73 0.44 M45.75 72.89 C62.58 53.39, 80.26 34.28, 108.73 0.44 M50.73 73.25 C73.85 45.9, 95.25 21.67, 113.72 0.8 M50.73 73.25 C72.66 48.74, 95.71 22.67, 113.72 0.8 M56.38 72.86 C71.17 54.59, 87.67 36.77, 119.36 0.41 M56.38 72.86 C72.64 54.01, 89.64 34.37, 119.36 0.41 M61.36 73.22 C84.45 46.05, 103.92 23.06, 124.35 0.77 M61.36 73.22 C86.54 44.86, 110.38 17.53, 124.35 0.77 M67.01 72.82 C91.83 46.56, 115.32 17.61, 129.99 0.37 M67.01 72.82 C88.03 50.36, 106.73 28.1, 129.99 0.37 M71.99 73.18 C90.02 54.17, 107.6 32.5, 134.98 0.73 M71.99 73.18 C92.58 49.51, 113.8 24.24, 134.98 0.73 M77.64 72.79 C94.12 54.23, 114.11 32.06, 140.62 0.34 M77.64 72.79 C96.69 53.64, 113.79 32.16, 140.62 0.34 M82.62 73.15 C102.72 50.36, 122.04 28.1, 145.61 0.7 M82.62 73.15 C98.63 54.12, 116.02 33.62, 145.61 0.7 M88.27 72.76 C100.73 57.03, 116.57 42.17, 151.25 0.3 M88.27 72.76 C109.63 47.83, 132.02 20.88, 151.25 0.3 M93.26 73.12 C106.94 57.03, 121.19 40.41, 156.24 0.66 M93.26 73.12 C118.22 43.85, 142.84 15.14, 156.24 0.66 M98.9 72.72 C119.17 49.75, 141.73 21.4, 161.88 0.27 M98.9 72.72 C122.55 46.63, 147.04 17.77, 161.88 0.27 M103.89 73.08 C129.53 43.49, 152.66 17.34, 166.87 0.63 M103.89 73.08 C121.97 50.71, 141.19 30.75, 166.87 0.63 M109.53 72.69 C127.8 52.9, 146.27 30.64, 172.51 0.23 M109.53 72.69 C133.84 45.98, 156.42 19.94, 172.51 0.23 M114.52 73.05 C130.02 58.1, 140.91 39.43, 177.5 0.59 M114.52 73.05 C131.38 55.48, 146.74 36.62, 177.5 0.59 M120.16 72.65 C139.49 54.9, 153.42 32.79, 183.14 0.2 M120.16 72.65 C144.89 43.79, 169.65 16.96, 183.14 0.2 M125.15 73.01 C146.02 49.74, 169.44 22.69, 188.13 0.56 M125.15 73.01 C150.29 45.8, 174.71 16.43, 188.13 0.56 M130.13 73.37 C148.99 50.63, 167.9 28.21, 193.77 0.17 M130.13 73.37 C145.87 54.34, 161.23 36.86, 193.77 0.17 M135.78 72.98 C148.61 57.22, 162.85 41.2, 198.76 0.53 M135.78 72.98 C155.28 51.51, 173.34 28.43, 198.76 0.53 M140.76 73.34 C165.54 43.55, 190.63 16.02, 204.4 0.13 M140.76 73.34 C154.6 55.38, 168.96 39.29, 204.4 0.13 M146.41 72.94 C164.59 51.4, 181.77 30.51, 209.39 0.49 M146.41 72.94 C158.7 57.88, 172.27 43, 209.39 0.49 M151.39 73.3 C177.74 42.29, 202.09 17.06, 214.37 0.85 M151.39 73.3 C173.18 48.09, 195.32 23.16, 214.37 0.85 M157.04 72.91 C171.77 54.86, 186.68 36.99, 220.02 0.46 M157.04 72.91 C170.69 58.36, 184.38 42.13, 220.02 0.46 M162.02 73.27 C182.07 49.62, 197.62 31, 225 0.82 M162.02 73.27 C179.47 52.46, 198.56 33.43, 225 0.82 M167.67 72.87 C182.96 57.89, 195.63 39.69, 230.65 0.42 M167.67 72.87 C183.52 54.31, 199.91 36.32, 230.65 0.42 M172.65 73.23 C196.89 47.45, 218.79 21.4, 235.63 0.78 M172.65 73.23 C188.59 52.84, 206.19 32.23, 235.63 0.78 M178.3 72.84 C199.32 50.86, 218.16 26.85, 241.28 0.39 M178.3 72.84 C199.27 47.31, 220.99 23.25, 241.28 0.39 M183.28 73.2 C198.3 57.98, 209.67 40.81, 246.26 0.75 M183.28 73.2 C197.06 56.33, 211.01 41.77, 246.26 0.75 M188.93 72.8 C208.71 49.02, 230.32 26.98, 250.6 1.86 M188.93 72.8 C207.57 51.51, 226.09 30.27, 250.6 1.86 M193.91 73.16 C212.76 51.44, 230.67 33.05, 255.58 2.22 M193.91 73.16 C217.1 48.87, 238.91 22.48, 255.58 2.22 M199.56 72.77 C219.84 48.86, 242.08 21.14, 259.91 3.34 M199.56 72.77 C217.47 53.09, 234.65 32.2, 259.91 3.34 M204.54 73.13 C218.11 60.51, 230.18 43.06, 263.59 5.21 M204.54 73.13 C227.6 46.38, 249.96 20.32, 263.59 5.21 M210.19 72.74 C224.12 55.89, 237.61 39.13, 265.3 9.34 M210.19 72.74 C222.94 57.67, 235.07 43.3, 265.3 9.34 M215.17 73.1 C232.05 54.74, 244.55 38.11, 267 13.47 M215.17 73.1 C233.34 51.81, 251.23 29.95, 267 13.47 M220.82 72.7 C237.46 52.62, 255.91 32.47, 266.74 19.87 M220.82 72.7 C236.59 54.19, 255.01 33.92, 266.74 19.87 M225.8 73.06 C237.36 58.87, 250.52 42.39, 266.48 26.27 M225.8 73.06 C240.15 54.81, 255.9 37.11, 266.48 26.27 M231.45 72.67 C237.21 62.7, 247.48 54.73, 266.22 32.67 M231.45 72.67 C245.14 57.95, 257.21 44.44, 266.22 32.67 M236.43 73.03 C245.44 61.67, 254.56 51.97, 266.61 38.31 M236.43 73.03 C245.27 61.6, 255.82 50.41, 266.61 38.31 M242.08 72.63 C250.85 63.96, 261.29 53.65, 266.35 44.71 M242.08 72.63 C249.73 62.57, 259.62 52.61, 266.35 44.71 M247.06 72.99 C252.67 66.31, 256.8 61.92, 266.09 51.11 M247.06 72.99 C252.73 65.46, 259.69 60.15, 266.09 51.11 M251.39 74.11 C255.65 69.55, 262.33 64.47, 265.83 57.5 M251.39 74.11 C256.45 70.13, 260.65 64.7, 265.83 57.5" stroke="#b2f2bb" stroke-width="0.5" fill="none"></path><path d="M18 0 M18 0 C86.66 1.75, 156.55 1.96, 249 0 M18 0 C110.06 0.57, 201.35 1.14, 249 0 M249 0 C262.83 0.62, 266.43 6.74, 267 18 M249 0 C262.37 -2.06, 268.17 5.21, 267 18 M267 18 C269.1 30.67, 269 46.98, 267 54 M267 18 C267.49 27.76, 266.44 38.92, 267 54 M267 54 C265.94 64.59, 261.8 71.22, 249 72 M267 54 C268.14 67.49, 260.29 70.12, 249 72 M249 72 C203.48 71.25, 155.52 71.24, 18 72 M249 72 C167.59 70.64, 84.68 71.88, 18 72 M18 72 C7.37 71.87, -1.17 64.71, 0 54 M18 72 C4.7 73.65, 1.16 63.88, 0 54 M0 54 C-0.12 46.25, 0.13 38.08, 0 18 M0 54 C1.14 45.14, -0.7 37.87, 0 18 M0 18 C-1.69 6.14, 6.34 -1.25, 18 0 M0 18 C-0.21 4.23, 5.54 1.45, 18 0" stroke="#1e1e1e" stroke-width="1" fill="none"></path></g><g transform="translate(2258.079142040455 1021.610864852033) rotate(0 123.29993438720703 12.5)"><text x="123.29993438720703" y="0" font-family="Virgil, Segoe UI Emoji" font-size="20px" fill="#1e1e1e" text-anchor="middle" style="white-space: pre;" direction="ltr" dominant-baseline="text-before-edge">websocket客户端收到data</text></g><g stroke-linecap="round" transform="translate(657.0746388405096 10) rotate(0 990.3704155815975 279.25928751627634)"><path d="M32 0 M32 0 C769.12 -6.69, 1504.23 -5.54, 1948.74 0 M32 0 C764.05 2.87, 1496.85 2.27, 1948.74 0 M1948.74 0 C1969.79 -1.59, 1980.4 9.17, 1980.74 32 M1948.74 0 C1970.3 2.3, 1982.37 12.39, 1980.74 32 M1980.74 32 C1980.39 197.41, 1981.37 364.34, 1980.74 526.52 M1980.74 32 C1979.4 209.41, 1979.26 386.34, 1980.74 526.52 M1980.74 526.52 C1982.37 549.19, 1970.29 559.57, 1948.74 558.52 M1980.74 526.52 C1980.56 547.54, 1970.99 557.46, 1948.74 558.52 M1948.74 558.52 C1509.75 557.82, 1069.82 557.51, 32 558.52 M1948.74 558.52 C1201.08 555.2, 453.36 555.76, 32 558.52 M32 558.52 C10.7 557.75, 0.32 549.05, 0 526.52 M32 558.52 C11.54 556.4, 1.28 546.23, 0 526.52 M0 526.52 C-1.55 369.55, -2.29 212.83, 0 32 M0 526.52 C1.2 418.38, 1.61 309.79, 0 32 M0 32 C0.79 10.9, 9.82 -1.15, 32 0 M0 32 C2.13 12.36, 12.35 -1.07, 32 0" stroke="#1e1e1e" stroke-width="1" fill="none"></path></g><g transform="translate(699.2344154862169 51.93238186113285) rotate(0 133.01992797851562 12.5)"><text x="0" y="0" font-family="Virgil, Segoe UI Emoji" font-size="20px" fill="#1971c2" text-anchor="start" style="white-space: pre;" direction="ltr" dominant-baseline="text-before-edge">宿主机port  ---&gt;   容器port</text></g><g stroke-linecap="round" transform="translate(660.1972518577445 686.673053654753) rotate(0 935.7035454644101 279.25928751627634)"><path d="M32 0 M32 0 C433.37 -1.99, 834.32 -2.29, 1839.41 0 M32 0 C548.47 -4.65, 1064.93 -4.11, 1839.41 0 M1839.41 0 C1862.26 0.01, 1871.03 9.16, 1871.41 32 M1839.41 0 C1860.04 0.74, 1870.76 12.18, 1871.41 32 M1871.41 32 C1871.1 205.8, 1871.25 379.53, 1871.41 526.52 M1871.41 32 C1870.43 160.23, 1870.29 288.12, 1871.41 526.52 M1871.41 526.52 C1869.55 547.05, 1860.02 556.88, 1839.41 558.52 M1871.41 526.52 C1869.67 548.79, 1861.71 558.7, 1839.41 558.52 M1839.41 558.52 C1374.31 554.47, 909.88 555.18, 32 558.52 M1839.41 558.52 C1360.98 563.38, 882.81 563.72, 32 558.52 M32 558.52 C10.66 556.97, -0.42 547.02, 0 526.52 M32 558.52 C12.07 558.09, -2.14 549.57, 0 526.52 M0 526.52 C-2.02 418.88, -1.25 312.06, 0 32 M0 526.52 C0.4 401.61, 0.62 277.14, 0 32 M0 32 C-0.38 12.49, 9.86 0.33, 32 0 M0 32 C1.08 11.02, 12.87 -1.38, 32 0" stroke="#1e1e1e" stroke-width="1" fill="none"></path></g><g stroke-linecap="round"><g transform="translate(571.9011635330919 607.9323818611338) rotate(0 41.171702289115615 -128.4867159174196)"><path d="M0.37 -1.08 C14.34 -43.95, 69.47 -215.41, 83.25 -257.94 M-0.9 0.97 C13.02 -41.69, 68.72 -213.56, 82.6 -256.73" stroke="#1e1e1e" stroke-width="1" fill="none"></path></g><g transform="translate(571.9011635330919 607.9323818611338) rotate(0 41.171702289115615 -128.4867159174196)"><path d="M81.9 -225.78 C82.59 -233.66, 85.11 -243.55, 81.21 -254.8 M84.49 -227.6 C84.47 -237.5, 84.04 -247.25, 81.89 -257.59" stroke="#1e1e1e" stroke-width="1" fill="none"></path></g><g transform="translate(571.9011635330919 607.9323818611338) rotate(0 41.171702289115615 -128.4867159174196)"><path d="M62.38 -232.09 C67.88 -238.46, 75.27 -246.78, 81.21 -254.8 M64.97 -233.91 C71.43 -241.72, 77.52 -249.36, 81.89 -257.59" stroke="#1e1e1e" stroke-width="1" fill="none"></path></g></g><mask></mask><g transform="translate(729.5478615311388 730.0990078376963) rotate(0 133.01992797851562 12.5)"><text x="0" y="0" font-family="Virgil, Segoe UI Emoji" font-size="20px" fill="#1971c2" text-anchor="start" style="white-space: pre;" direction="ltr" dominant-baseline="text-before-edge">宿主机port  ---&gt;   容器port</text></g></svg>