<svg version="1.1" xmlns="http://www.w3.org/2000/svg" viewBox="0 0 1679.2997802435034 1570.986160875787" width="1679.2997802435034" height="1570.986160875787">
  <!-- svg-source:excalidraw -->
  
  <defs>
    <style class="style-fonts">
      @font-face {
        font-family: "Virgil";
        src: url("https://excalidraw.com/Virgil.woff2");
      }
      @font-face {
        font-family: "Cascadia";
        src: url("https://excalidraw.com/Cascadia.woff2");
      }
    </style>
  </defs>
  <rect x="0" y="0" width="1679.2997802435034" height="1570.986160875787" fill="#ffffff"></rect><g stroke-linecap="round" transform="translate(193.49728300073593 10) rotate(0 90.5 39.5)"><path d="M19.75 0 M19.75 0 C61.07 0.77, 102.01 -0.04, 161.25 0 M19.75 0 C52.3 1.33, 83.84 0.07, 161.25 0 M161.25 0 C173.42 -0.07, 179.28 8.35, 181 19.75 M161.25 0 C175.7 2.04, 183.21 5.62, 181 19.75 M181 19.75 C180.2 36.55, 180.92 48.41, 181 59.25 M181 19.75 C181.06 28.01, 181.04 37.24, 181 59.25 M181 59.25 C182.3 72.21, 176.41 77.97, 161.25 79 M181 59.25 C179.04 73.09, 175.8 77.35, 161.25 79 M161.25 79 C131.25 81.27, 101.63 81.22, 19.75 79 M161.25 79 C120.52 80.17, 79.95 79.67, 19.75 79 M19.75 79 C5.73 79.14, 0.69 72.78, 0 59.25 M19.75 79 C7.37 80.86, 2.29 70.39, 0 59.25 M0 59.25 C-0.32 47.85, 1.56 37.14, 0 19.75 M0 59.25 C-0.99 45.34, -0.13 30.57, 0 19.75 M0 19.75 C1.4 6.53, 8.49 1.29, 19.75 0 M0 19.75 C1.05 7.9, 4.81 2.22, 19.75 0" stroke="#1e1e1e" stroke-width="1" fill="none"></path></g><g transform="translate(249.59731962182968 37) rotate(0 34.39996337890625 12.5)"><text x="34.39996337890625" y="0" font-family="Virgil, Segoe UI Emoji" font-size="20px" fill="#1e1e1e" text-anchor="middle" style="white-space: pre;" direction="ltr" dominant-baseline="text-before-edge">kubectl</text></g><g stroke-linecap="round"><g transform="translate(274.5746155234267 90) rotate(0 -1.5595549564344537 118.29529563680546)"><path d="M0.59 -0.87 C-0.1 38.55, -2.41 196.38, -3.02 236.12 M-0.56 1.29 C-1.45 40.92, -3.2 198.38, -3.71 237.46" stroke="#1e1e1e" stroke-width="1" fill="none"></path></g><g transform="translate(274.5746155234267 90) rotate(0 -1.5595549564344537 118.29529563680546)"><path d="M-15.08 209.98 C-10.49 220.87, -4.22 230.62, -4.45 236.46 M-13.07 210.04 C-9.97 217.04, -7.21 226.11, -3.13 237.01" stroke="#1e1e1e" stroke-width="1" fill="none"></path></g><g transform="translate(274.5746155234267 90) rotate(0 -1.5595549564344537 118.29529563680546)"><path d="M5.44 210.23 C2.04 221.12, 0.32 230.78, -4.45 236.46 M7.45 210.29 C4.47 217.39, 1.15 226.4, -3.13 237.01" stroke="#1e1e1e" stroke-width="1" fill="none"></path></g></g><mask></mask><g stroke-linecap="round" transform="translate(180.704772225522 331.9336477647626) rotate(0 89.5 31)"><path d="M15.5 0 M15.5 0 C66.52 0.13, 120.56 -1.14, 163.5 0 M15.5 0 C53.55 0.94, 93.87 0.94, 163.5 0 M163.5 0 C175.76 -0.84, 180.56 5.7, 179 15.5 M163.5 0 C175.15 -1.04, 181.15 4.95, 179 15.5 M179 15.5 C178.42 22.79, 177.03 30.19, 179 46.5 M179 15.5 C180.2 21.82, 178.35 29.45, 179 46.5 M179 46.5 C180.21 55.4, 171.91 61.3, 163.5 62 M179 46.5 C179.54 55.48, 176.07 59.73, 163.5 62 M163.5 62 C105.41 62.17, 48.72 63.19, 15.5 62 M163.5 62 C112.43 62.28, 61 62.91, 15.5 62 M15.5 62 C7.16 60.23, -0.21 56.9, 0 46.5 M15.5 62 C4.46 61.65, 0.04 58.65, 0 46.5 M0 46.5 C-1.58 34.1, 0.71 25.35, 0 15.5 M0 46.5 C0.74 37.7, 0.24 28.19, 0 15.5 M0 15.5 C-1.54 7.1, 6.03 -1.35, 15.5 0 M0 15.5 C0.56 5.29, 7 0.04, 15.5 0" stroke="#1e1e1e" stroke-width="1" fill="none"></path></g><g transform="translate(188.68483661761184 350.4336477647626) rotate(0 81.51993560791016 12.5)"><text x="81.51993560791016" y="0" font-family="Virgil, Segoe UI Emoji" font-size="20px" fill="#1e1e1e" text-anchor="middle" style="white-space: pre;" direction="ltr" dominant-baseline="text-before-edge">CRI:PortForward</text></g><g stroke-linecap="round"><g transform="translate(204.69935477776153 399.79712510159453) rotate(0 0.6271086760835374 65.86559701128964)"><path d="M-0.31 -0.45 C-0.49 21.37, -0.48 109.69, -0.6 131.94 M1.72 -1.72 C1.91 20.8, 1.86 111.29, 1.8 133.46" stroke="#1e1e1e" stroke-width="1" fill="none"></path></g><g transform="translate(204.69935477776153 399.79712510159453) rotate(0 0.6271086760835374 65.86559701128964)"><path d="M-9.17 104.25 C-4.8 113.07, 0.49 125.41, 3.57 135.38 M-7.85 104.8 C-4.63 112.41, -3.53 119.1, 2.15 133.27" stroke="#1e1e1e" stroke-width="1" fill="none"></path></g><g transform="translate(204.69935477776153 399.79712510159453) rotate(0 0.6271086760835374 65.86559701128964)"><path d="M11.35 104.28 C8.8 113.03, 7.17 125.37, 3.57 135.38 M12.67 104.83 C10.59 112.49, 6.4 119.17, 2.15 133.27" stroke="#1e1e1e" stroke-width="1" fill="none"></path></g></g><mask></mask><g stroke-linecap="round" transform="translate(175.03805469622512 535.584193385329) rotate(0 90.5 42.5)"><path d="M21.25 0 M21.25 0 C59.1 -1.02, 98.86 1.81, 159.75 0 M21.25 0 C75.89 0.85, 129.53 0.13, 159.75 0 M159.75 0 C175.79 -0.19, 179.8 5.71, 181 21.25 M159.75 0 C174.73 -0.43, 180.82 5.06, 181 21.25 M181 21.25 C180.46 35.57, 179.63 44.2, 181 63.75 M181 21.25 C180.29 34.9, 181.49 48.66, 181 63.75 M181 63.75 C182.94 75.95, 175.8 84.81, 159.75 85 M181 63.75 C180.21 78.23, 174.7 87.25, 159.75 85 M159.75 85 C106.58 85.1, 53.49 85.1, 21.25 85 M159.75 85 C106.89 83.81, 53.94 83.62, 21.25 85 M21.25 85 C7.12 86.58, 0.75 79.19, 0 63.75 M21.25 85 C7.21 83.41, -2.22 78.96, 0 63.75 M0 63.75 C-0.07 53.38, 1.27 40.11, 0 21.25 M0 63.75 C0.76 47.89, 0.57 33.44, 0 21.25 M0 21.25 C1.6 7.12, 7.22 -1.65, 21.25 0 M0 21.25 C1.8 7.39, 7.83 1.8, 21.25 0" stroke="#1e1e1e" stroke-width="1" fill="none"></path></g><g transform="translate(183.78811573138137 540.584193385329) rotate(0 81.74993896484375 37.5)"><text x="81.74993896484375" y="0" font-family="Virgil, Segoe UI Emoji" font-size="20px" fill="#1e1e1e" text-anchor="middle" style="white-space: pre;" direction="ltr" dominant-baseline="text-before-edge">ContainerManage</text><text x="81.74993896484375" y="25" font-family="Virgil, Segoe UI Emoji" font-size="20px" fill="#1e1e1e" text-anchor="middle" style="white-space: pre;" direction="ltr" dominant-baseline="text-before-edge">rService::PortFor</text><text x="81.74993896484375" y="50" font-family="Virgil, Segoe UI Emoji" font-size="20px" fill="#1e1e1e" text-anchor="middle" style="white-space: pre;" direction="ltr" dominant-baseline="text-before-edge">ward</text></g><g mask="url(#mask-L21NloXRYanYDUA627w0l)" stroke-linecap="round"><g transform="translate(340.1525326909009 94.37409626960402) rotate(0 129.9856091466018 118.45531114423346)"><path d="M0.67 1.07 C44.24 40.07, 217.15 195.92, 260.41 235.06 M-0.44 0.58 C43.17 40.26, 216.67 196.87, 260.06 236.33" stroke="#1e1e1e" stroke-width="1" fill="none"></path></g><g transform="translate(340.1525326909009 94.37409626960402) rotate(0 129.9856091466018 118.45531114423346)"><path d="M234.06 226.93 C237.5 228.84, 244.82 230.85, 259.16 238.2 M232.63 224.83 C240.21 227.61, 248.26 230.98, 260.71 236.23" stroke="#1e1e1e" stroke-width="1" fill="none"></path></g><g transform="translate(340.1525326909009 94.37409626960402) rotate(0 129.9856091466018 118.45531114423346)"><path d="M247.83 211.72 C248.45 216.96, 252.83 222.24, 259.16 238.2 M246.41 209.62 C249.89 216.73, 253.94 224.52, 260.71 236.23" stroke="#1e1e1e" stroke-width="1" fill="none"></path></g></g><mask id="mask-L21NloXRYanYDUA627w0l"><rect x="0" y="0" fill="#fff" width="699.4055057102202" height="429.9336172471845"></rect><rect x="392.2590835926503" y="199.65385675839423" fill="#000" width="155.0398712158203" height="25" opacity="1"></rect></mask><g transform="translate(392.2590835926503 199.65385675839423) rotate(0 77.87905824485239 13.17555065544326)"><text x="77.51993560791016" y="0" font-family="Virgil, Segoe UI Emoji" font-size="20px" fill="#1e1e1e" text-anchor="middle" style="white-space: pre;" direction="ltr" dominant-baseline="text-before-edge">connect with url</text></g><g stroke-linecap="round" transform="translate(463.87142871966273 337.9336172471845) rotate(0 123.5 30)"><path d="M15 0 M15 0 C101.43 -0.48, 186.13 0.16, 232 0 M15 0 C78.38 1.13, 141.08 0.53, 232 0 M232 0 C241.8 -1.59, 248.3 4.8, 247 15 M232 0 C244.29 -1.18, 245.04 5.68, 247 15 M247 15 C246.08 26.27, 245.61 38.56, 247 45 M247 15 C246.94 21.18, 247.62 28.06, 247 45 M247 45 C248.7 55.95, 241.15 60.14, 232 60 M247 45 C247.8 55.42, 242.79 61.86, 232 60 M232 60 C145.34 59.26, 58.3 59.83, 15 60 M232 60 C149.85 60.6, 66.76 61.6, 15 60 M15 60 C4.78 60.09, 1.4 54.95, 0 45 M15 60 C7.19 61.49, 1.05 56.32, 0 45 M0 45 C-1.64 38.8, -0.18 33.22, 0 15 M0 45 C0.76 36.08, 0.31 27.67, 0 15 M0 15 C-0.7 4.72, 3.36 -0.89, 15 0 M0 15 C-0.65 2.91, 5.8 -1.5, 15 0" stroke="#1e1e1e" stroke-width="1" fill="none"></path></g><g transform="translate(476.0515205775729 355.4336172471845) rotate(0 111.31990814208984 12.5)"><text x="111.31990814208984" y="0" font-family="Virgil, Segoe UI Emoji" font-size="20px" fill="#1e1e1e" text-anchor="middle" style="white-space: pre;" direction="ltr" dominant-baseline="text-before-edge">"/portforward/{token}"</text></g><g mask="url(#mask-YHdIEQG3jJXgTZE74aBr0)" stroke-linecap="round"><g transform="translate(301.41639320480806 531.7593370210466) rotate(0 2.627924262800036 -70.0119430039581)"><path d="M1.12 -0.11 C1.45 -23.34, 2.22 -116.71, 2.67 -139.91 M0.25 -1.22 C0.91 -24.26, 4.5 -115.99, 5 -138.81" stroke="#1e1e1e" stroke-width="1" fill="none"></path></g><g transform="translate(301.41639320480806 531.7593370210466) rotate(0 2.627924262800036 -70.0119430039581)"><path d="M14.18 -111.5 C9.78 -119.7, 7.43 -130.74, 3.24 -139.01 M15.36 -110.82 C11.27 -116.3, 10.66 -123.59, 4.04 -139.16" stroke="#1e1e1e" stroke-width="1" fill="none"></path></g><g transform="translate(301.41639320480806 531.7593370210466) rotate(0 2.627924262800036 -70.0119430039581)"><path d="M-6.33 -112.15 C-3.41 -120.3, 1.58 -131.12, 3.24 -139.01 M-5.15 -111.47 C-4.72 -116.79, -0.81 -123.93, 4.04 -139.16" stroke="#1e1e1e" stroke-width="1" fill="none"></path></g></g><mask id="mask-YHdIEQG3jJXgTZE74aBr0"><rect x="0" y="0" fill="#fff" width="404.80120349025105" height="770.8488422525277"></rect><rect x="213.87890180211934" y="449.7145844053061" fill="#000" width="178.4597930908203" height="25" opacity="1"></rect></mask><g transform="translate(213.87890180211934 449.714584405306) rotate(0 90.16541566548875 12.032809611782397)"><text x="89.22989654541016" y="0" font-family="Virgil, Segoe UI Emoji" font-size="20px" fill="#1e1e1e" text-anchor="middle" style="white-space: pre;" direction="ltr" dominant-baseline="text-before-edge">resp-&gt;set_url(url);</text></g><g stroke-linecap="round"><g transform="translate(255.23666817850562 622.5104146964735) rotate(0 -0.6515482635444414 47.89646915813229)"><path d="M0.42 -0.22 C0.42 15.95, -0.53 80.11, -0.73 96.2 M-0.81 -1.38 C-0.92 14.97, -1.6 80.76, -1.73 97.18" stroke="#1e1e1e" stroke-width="1" fill="none"></path></g><g transform="translate(255.23666817850562 622.5104146964735) rotate(0 -0.6515482635444414 47.89646915813229)"><path d="M-12.1 68.74 C-11.28 75.45, -8.71 83.74, -1.93 99.17 M-11.12 68.18 C-10.44 75.55, -6.76 82.34, -0.76 96.19" stroke="#1e1e1e" stroke-width="1" fill="none"></path></g><g transform="translate(255.23666817850562 622.5104146964735) rotate(0 -0.6515482635444414 47.89646915813229)"><path d="M8.42 68.92 C4.31 75.67, 1.95 83.91, -1.93 99.17 M9.4 68.37 C4.98 75.75, 3.56 82.5, -0.76 96.19" stroke="#1e1e1e" stroke-width="1" fill="none"></path></g></g><mask></mask><g stroke-linecap="round" transform="translate(141.90391936013157 724.3244325110361) rotate(0 114 49.5)"><path d="M24.75 0 M24.75 0 C82.83 -0.06, 142.84 1.44, 203.25 0 M24.75 0 C75.63 1.21, 128.81 0.2, 203.25 0 M203.25 0 C217.82 -0.7, 228.47 7.08, 228 24.75 M203.25 0 C221.98 -2.27, 230.17 8.03, 228 24.75 M228 24.75 C230.02 39.6, 229.02 50.21, 228 74.25 M228 24.75 C228.51 40.75, 229.17 54.24, 228 74.25 M228 74.25 C227.79 90.82, 219.13 98.69, 203.25 99 M228 74.25 C228.04 92.56, 220.61 100.46, 203.25 99 M203.25 99 C149.65 97.05, 94.32 98.67, 24.75 99 M203.25 99 C150.6 100.73, 96.27 101.12, 24.75 99 M24.75 99 C9.11 97.65, 0.49 90.86, 0 74.25 M24.75 99 C10.09 99.04, 0.16 88.85, 0 74.25 M0 74.25 C1.5 54.83, -0.34 35.16, 0 24.75 M0 74.25 C0.49 60.96, -0.51 49.39, 0 24.75 M0 24.75 C0.18 8.72, 8.15 0.28, 24.75 0 M0 24.75 C0.49 7.09, 10.51 -1.7, 24.75 0" stroke="#1e1e1e" stroke-width="1" fill="none"></path></g><g transform="translate(147.23401274392063 736.3244325110361) rotate(0 108.66990661621094 37.5)"><text x="108.66990661621094" y="0" font-family="Virgil, Segoe UI Emoji" font-size="20px" fill="#1e1e1e" text-anchor="middle" style="white-space: pre;" direction="ltr" dominant-baseline="text-before-edge">std::string url = </text><text x="108.66990661621094" y="25" font-family="Virgil, Segoe UI Emoji" font-size="20px" fill="#1e1e1e" text-anchor="middle" style="white-space: pre;" direction="ltr" dominant-baseline="text-before-edge">BuildURL("portforward</text><text x="108.66990661621094" y="50" font-family="Virgil, Segoe UI Emoji" font-size="20px" fill="#1e1e1e" text-anchor="middle" style="white-space: pre;" direction="ltr" dominant-baseline="text-before-edge">", token);</text></g><g mask="url(#mask-PZcLOn4qHF-02xP-RF1_s)" stroke-linecap="round"><g transform="translate(302.6326781006185 328.11131415446147) rotate(0 3.9041015006827138 -117.04952044768274)"><path d="M0.78 -0.12 C2.14 -38.96, 7.23 -195.16, 8.08 -233.98 M-0.27 -1.23 C1.05 -39.83, 6.34 -193.77, 7.76 -232.76" stroke="#1e1e1e" stroke-width="1" fill="none"></path></g><g transform="translate(302.6326781006185 328.11131415446147) rotate(0 3.9041015006827138 -117.04952044768274)"><path d="M16.82 -202.24 C13.54 -214.14, 12.46 -219.51, 6.33 -234.69 M17.99 -205.21 C15.45 -211.94, 11.71 -219.27, 8.1 -231.79" stroke="#1e1e1e" stroke-width="1" fill="none"></path></g><g transform="translate(302.6326781006185 328.11131415446147) rotate(0 3.9041015006827138 -117.04952044768274)"><path d="M-3.69 -202.96 C-1.03 -214.79, 3.85 -219.95, 6.33 -234.69 M-2.51 -205.94 C0.37 -212.35, 2.07 -219.49, 8.1 -231.79" stroke="#1e1e1e" stroke-width="1" fill="none"></path></g></g><mask id="mask-PZcLOn4qHF-02xP-RF1_s"><rect x="0" y="0" fill="#fff" width="409.51972281708504" height="661.4717288252793"></rect><rect x="293.46621510728926" y="198.9311068190525" fill="#000" width="25.219970703125" height="25" opacity="1"></rect></mask><g transform="translate(293.46621510728926 198.9311068190525) rotate(0 13.070564494011933 12.130686887726227)"><text x="12.6099853515625" y="0" font-family="Virgil, Segoe UI Emoji" font-size="20px" fill="#1e1e1e" text-anchor="middle" style="white-space: pre;" direction="ltr" dominant-baseline="text-before-edge">url</text></g><g stroke-linecap="round"><g transform="translate(585.0796459060685 397.3936257628657) rotate(0 -0.15000791055572904 29.940277132071742)"><path d="M-1.02 0.35 C-1.1 10.34, 0.75 49.4, 0.72 59.3 M0.64 -0.51 C0.37 9.66, 0.07 50.16, 0.15 60.39" stroke="#1e1e1e" stroke-width="1" fill="none"></path></g><g transform="translate(585.0796459060685 397.3936257628657) rotate(0 -0.15000791055572904 29.940277132071742)"><path d="M-9.49 33.39 C-7.57 41.62, -2.75 55.27, -1.02 62.33 M-10.42 32.32 C-7.41 38.85, -4.84 44.03, -0.27 60.46" stroke="#1e1e1e" stroke-width="1" fill="none"></path></g><g transform="translate(585.0796459060685 397.3936257628657) rotate(0 -0.15000791055572904 29.940277132071742)"><path d="M11.03 33.41 C4.76 41.45, 1.38 55.1, -1.02 62.33 M10.1 32.35 C8.98 38.85, 7.42 44.03, -0.27 60.46" stroke="#1e1e1e" stroke-width="1" fill="none"></path></g></g><mask></mask><g stroke-linecap="round" transform="translate(468.27590984064193 458.5573482451078) rotate(0 131.5 32)"><path d="M16 0 M16 0 C64.43 -2.81, 114.71 -0.79, 247 0 M16 0 C72.56 1.85, 127.22 2.05, 247 0 M247 0 C258.35 1.96, 264.7 6.28, 263 16 M247 0 C256.69 0.16, 263.8 5.75, 263 16 M263 16 C261.49 26.49, 263.33 36.78, 263 48 M263 16 C263.38 25.75, 263.06 33.53, 263 48 M263 48 C261.07 59.58, 257.44 64.09, 247 64 M263 48 C264.61 58.61, 259.86 65.49, 247 64 M247 64 C168.81 63.22, 86.2 62.91, 16 64 M247 64 C176.53 63.34, 106.6 64.15, 16 64 M16 64 C5.99 65.57, -0.7 58.39, 0 48 M16 64 C3.45 62.97, -0.65 56.58, 0 48 M0 48 C1.05 37.46, 0.68 26.47, 0 16 M0 48 C0.91 37.21, -0.99 28.49, 0 16 M0 16 C1.89 6.29, 6.48 0.47, 16 0 M0 16 C0.89 3.5, 3.39 -1.65, 16 0" stroke="#1e1e1e" stroke-width="1" fill="none"></path></g><g transform="translate(473.7760242815599 465.5573482451078) rotate(0 125.99988555908203 25)"><text x="125.99988555908203" y="0" font-family="Virgil, Segoe UI Emoji" font-size="20px" fill="#1e1e1e" text-anchor="middle" style="white-space: pre;" direction="ltr" dominant-baseline="text-before-edge">PortForwardServe::Execut</text><text x="125.99988555908203" y="25" font-family="Virgil, Segoe UI Emoji" font-size="20px" fill="#1e1e1e" text-anchor="middle" style="white-space: pre;" direction="ltr" dominant-baseline="text-before-edge">eStreamCommand</text></g><g mask="url(#mask-uYqowDcHXtol0wpF1qjuJ)" stroke-linecap="round"><g transform="translate(593.2555507389081 523.886347065546) rotate(0 -0.0441243467099639 54.36345177200617)"><path d="M0.28 -0.7 C0.63 17.45, 0.84 90.13, 0.95 108.51 M-1.03 1.54 C-0.64 19.83, 0.31 91.21, 0.61 109.43" stroke="#1e1e1e" stroke-width="1" fill="none"></path></g><g transform="translate(593.2555507389081 523.886347065546) rotate(0 -0.0441243467099639 54.36345177200617)"><path d="M-11.24 83.34 C-9.96 88.97, -6.01 92.11, 0.88 110.11 M-10.49 81.46 C-5.24 92.68, -0.99 104.46, 1.6 108.55" stroke="#1e1e1e" stroke-width="1" fill="none"></path></g><g transform="translate(593.2555507389081 523.886347065546) rotate(0 -0.0441243467099639 54.36345177200617)"><path d="M9.28 83.03 C6.38 88.78, 6.15 91.98, 0.88 110.11 M10.03 81.16 C7.12 92.59, 3.21 104.49, 1.6 108.55" stroke="#1e1e1e" stroke-width="1" fill="none"></path></g></g><mask id="mask-uYqowDcHXtol0wpF1qjuJ"><rect x="0" y="0" fill="#fff" width="693.4758762197365" height="733.5833244278806"></rect><rect x="576.7054008158768" y="566.2348357467133" fill="#000" width="32.879974365234375" height="25" opacity="1"></rect></mask><g transform="translate(576.7054008158768 566.2348357467133) rotate(0 16.506025576321406 12.014963090838862)"><text x="16.439987182617188" y="0" font-family="Virgil, Segoe UI Emoji" font-size="20px" fill="#1e1e1e" text-anchor="middle" style="white-space: pre;" direction="ltr" dominant-baseline="text-before-edge">......</text></g><g stroke-linecap="round" transform="translate(475.46475879100535 642.1858572245055) rotate(0 137.5 30.5)"><path d="M15.25 0 M15.25 0 C112.18 -2.47, 209.67 -1.34, 259.75 0 M15.25 0 C112.15 -0.9, 210.04 -0.81, 259.75 0 M259.75 0 C270.6 1.62, 276.99 3.32, 275 15.25 M259.75 0 C269.67 0.08, 274.29 4.73, 275 15.25 M275 15.25 C276.51 24.56, 273.86 31.72, 275 45.75 M275 15.25 C275.66 25.76, 275.92 36.97, 275 45.75 M275 45.75 C275.91 57.06, 268.38 62.93, 259.75 61 M275 45.75 C275.99 54.37, 270.48 61.12, 259.75 61 M259.75 61 C165.49 62.43, 74.19 61.68, 15.25 61 M259.75 61 C166.54 60.35, 74.44 59.97, 15.25 61 M15.25 61 C5.78 59.69, -1.3 56.76, 0 45.75 M15.25 61 C5.29 61.54, -0.11 56.24, 0 45.75 M0 45.75 C-1.32 34.09, 1.36 28.03, 0 15.25 M0 45.75 C0.21 34.34, -1.02 23.81, 0 15.25 M0 15.25 C1.81 6.17, 6.73 -0.35, 15.25 0 M0 15.25 C0.34 5.81, 5.34 0.36, 15.25 0" stroke="#1e1e1e" stroke-width="1" fill="none"></path></g><g transform="translate(489.1148747578022 660.1858572245055) rotate(0 123.84988403320312 12.5)"><text x="123.84988403320312" y="0" font-family="Virgil, Segoe UI Emoji" font-size="20px" fill="#1e1e1e" text-anchor="middle" style="white-space: pre;" direction="ltr" dominant-baseline="text-before-edge">cb-&gt;container.portforward</text></g><g stroke-linecap="round"><g transform="translate(600.408798385679 704.1858572245056) rotate(0 0.19298989703014513 32.681764631849006)"><path d="M0.41 1.17 C0.68 11.92, 1.33 54.13, 1.21 64.62 M-0.84 0.74 C-0.6 11.12, 0.88 52, 0.79 62.8" stroke="#1e1e1e" stroke-width="1" fill="none"></path></g><g transform="translate(600.408798385679 704.1858572245056) rotate(0 0.19298989703014513 32.681764631849006)"><path d="M-7.98 36.48 C-6.1 41.34, -4.06 50.33, 1.16 63.48 M-10.04 34.82 C-5.88 45.39, -1.47 57, 1.17 63.43" stroke="#1e1e1e" stroke-width="1" fill="none"></path></g><g transform="translate(600.408798385679 704.1858572245056) rotate(0 0.19298989703014513 32.681764631849006)"><path d="M12.54 36.14 C8.97 41.16, 5.56 50.24, 1.16 63.48 M10.48 34.47 C6.83 45, 3.43 56.74, 1.17 63.43" stroke="#1e1e1e" stroke-width="1" fill="none"></path></g></g><mask></mask><g stroke-linecap="round" transform="translate(457.75307102869033 988.275907374159) rotate(0 157.5 31)"><path d="M15.5 0 M15.5 0 C111.09 -2.48, 205.34 -1.31, 299.5 0 M15.5 0 C106.59 -2.42, 196.09 -1.72, 299.5 0 M299.5 0 C309.22 -0.31, 315.04 6.74, 315 15.5 M299.5 0 C310.7 1.46, 315.12 3.58, 315 15.5 M315 15.5 C315.23 23.2, 315.09 30.01, 315 46.5 M315 15.5 C314.37 27.77, 315.57 37.44, 315 46.5 M315 46.5 C315.49 56.94, 311.43 62.04, 299.5 62 M315 46.5 C315.16 54.93, 311.63 62.31, 299.5 62 M299.5 62 C204.83 60, 109.89 60.82, 15.5 62 M299.5 62 C239.59 60.91, 180.75 60.77, 15.5 62 M15.5 62 C5.07 62.28, 0.43 55.82, 0 46.5 M15.5 62 C7.42 60.3, -2.13 58.22, 0 46.5 M0 46.5 C0.33 35.05, -1.74 20.37, 0 15.5 M0 46.5 C0.54 39.25, -0.13 32.66, 0 15.5 M0 15.5 C0.22 5.48, 6.78 0.07, 15.5 0 M0 15.5 C-2.04 4.64, 4.27 -0.19, 15.5 0" stroke="#1e1e1e" stroke-width="1" fill="none"></path></g><g transform="translate(470.49321385095595 1006.775907374159) rotate(0 144.75985717773438 12.5)"><text x="144.75985717773438" y="0" font-family="Virgil, Segoe UI Emoji" font-size="20px" fill="#1e1e1e" text-anchor="middle" style="white-space: pre;" direction="ltr" dominant-baseline="text-before-edge">portforward_prepare_console</text></g><g stroke-linecap="round" transform="translate(1269.2030002355923 340.3782317706187) rotate(0 146.5 28)"><path d="M14 0 M14 0 C82.5 -0.18, 151.71 0.85, 279 0 M14 0 C69.87 -0.19, 126.23 0.55, 279 0 M279 0 C289.08 1.27, 293.11 3.29, 293 14 M279 0 C286.11 1.05, 292.74 4.77, 293 14 M293 14 C294.29 25.27, 294.14 33.18, 293 42 M293 14 C293.37 25.15, 293.92 36.22, 293 42 M293 42 C293.14 49.68, 289.9 56.27, 279 56 M293 42 C293.75 53.14, 287.53 55.68, 279 56 M279 56 C219.75 55.96, 162.35 54.38, 14 56 M279 56 C188.34 56.61, 97.93 56.1, 14 56 M14 56 C6.63 54.52, -1.85 52.54, 0 42 M14 56 C6.84 57.1, 1.32 51.88, 0 42 M0 42 C-1.21 34.33, 1.31 24.68, 0 14 M0 42 C0.07 34.24, 0.76 26.21, 0 14 M0 14 C-1.77 4.21, 3.89 -0.16, 14 0 M0 14 C1.07 5.49, 5.48 -0.25, 14 0" stroke="#1e1e1e" stroke-width="1" fill="none"></path></g><g transform="translate(1300.663113760983 355.8782317706187) rotate(0 115.03988647460938 12.5)"><text x="115.03988647460938" y="0" font-family="Virgil, Segoe UI Emoji" font-size="20px" fill="#1e1e1e" text-anchor="middle" style="white-space: pre;" direction="ltr" dominant-baseline="text-before-edge">cri_stream_server_init</text></g><g stroke-linecap="round"><g transform="translate(1405.9480359015097 398.2749226634004) rotate(0 1.3614096618045153 25.249160315262174)"><path d="M1.2 -1.06 C1.52 7.11, 2.21 41.53, 2.36 50 M0.36 1 C0.48 9.29, 1.21 43.23, 1.34 51.56" stroke="#1e1e1e" stroke-width="1" fill="none"></path></g><g transform="translate(1405.9480359015097 398.2749226634004) rotate(0 1.3614096618045153 25.249160315262174)"><path d="M-9.42 28.01 C-4.39 35.32, -1.75 43.77, 2.92 52.31 M-8.62 28.68 C-4.48 36.82, -0.4 45.23, 2.3 52.2" stroke="#1e1e1e" stroke-width="1" fill="none"></path></g><g transform="translate(1405.9480359015097 398.2749226634004) rotate(0 1.3614096618045153 25.249160315262174)"><path d="M7.68 27.69 C7 35.27, 3.91 43.84, 2.92 52.31 M8.48 28.35 C6.4 36.49, 4.27 45.02, 2.3 52.2" stroke="#1e1e1e" stroke-width="1" fill="none"></path></g></g><mask></mask><g stroke-linecap="round" transform="translate(1273.3750825573106 451.24262902492745) rotate(0 139 30)"><path d="M15 0 M15 0 C114.16 -0.29, 212.96 0.24, 263 0 M15 0 C108.98 -1.86, 202.08 -0.92, 263 0 M263 0 C272.78 0.09, 279.4 4.95, 278 15 M263 0 C275.19 1.49, 279.05 6.32, 278 15 M278 15 C276.94 22.18, 278.4 29.98, 278 45 M278 15 C278.8 24.19, 278.35 33.9, 278 45 M278 45 C277.3 54.72, 271.36 59.11, 263 60 M278 45 C277.35 52.91, 273.8 58.5, 263 60 M263 60 C205.13 60.11, 146.71 60.54, 15 60 M263 60 C200.35 58.99, 139.99 58.89, 15 60 M15 60 C6.14 60.47, 0.77 53.41, 0 45 M15 60 C3.06 58.35, 2.09 56.25, 0 45 M0 45 C0.69 33.76, 0.37 23.68, 0 15 M0 45 C-0.12 35.81, 0.73 27.15, 0 15 M0 15 C0.71 4.78, 5.7 1.65, 15 0 M0 15 C1.98 6.33, 3.84 0.61, 15 0" stroke="#1e1e1e" stroke-width="1" fill="none"></path></g><g transform="translate(1325.3951631237169 456.24262902492745) rotate(0 86.97991943359375 25)"><text x="86.97991943359375" y="0" font-family="Virgil, Segoe UI Emoji" font-size="20px" fill="#1e1e1e" text-anchor="middle" style="white-space: pre;" direction="ltr" dominant-baseline="text-before-edge">RegisterCallback </text><text x="86.97991943359375" y="25" font-family="Virgil, Segoe UI Emoji" font-size="20px" fill="#1e1e1e" text-anchor="middle" style="white-space: pre;" direction="ltr" dominant-baseline="text-before-edge">PortForwardServe</text></g><g stroke-linecap="round"><g transform="translate(1263.7307142418035 481.2910251858962) rotate(0 -58.180283682441825 1.3889922210300938)"><path d="M0.02 0.95 C-19.2 1.37, -96.32 2.41, -115.67 2.38 M-1.43 0.4 C-20.73 0.5, -97.15 0.45, -116.38 0.66" stroke="#1e1e1e" stroke-width="1" fill="none"></path></g><g transform="translate(1263.7307142418035 481.2910251858962) rotate(0 -58.180283682441825 1.3889922210300938)"><path d="M-86.66 -8.97 C-94.56 -6.82, -104.79 -6.06, -115.47 0.44 M-87.28 -9.08 C-96.28 -6, -106.08 -2.44, -115.95 -0.01" stroke="#1e1e1e" stroke-width="1" fill="none"></path></g><g transform="translate(1263.7307142418035 481.2910251858962) rotate(0 -58.180283682441825 1.3889922210300938)"><path d="M-86.57 11.55 C-94.46 8.18, -104.71 3.41, -115.47 0.44 M-87.19 11.44 C-96.36 8.27, -106.19 5.58, -115.95 -0.01" stroke="#1e1e1e" stroke-width="1" fill="none"></path></g></g><mask></mask><g stroke-linecap="round" transform="translate(845.9450273620189 420.11018497566425) rotate(0 143 58)"><path d="M15.9 31.05 C15.9 31.05, 15.9 31.05, 15.9 31.05 M15.9 31.05 C15.9 31.05, 15.9 31.05, 15.9 31.05 M0.88 53.93 C11 43.38, 15 36.02, 25.95 27.45 M1.78 52.59 C6.86 47.44, 12.5 42.53, 26.03 25.4 M3.37 55.63 C14.36 44, 27.11 29.99, 36.9 21.6 M3.31 57.15 C10.65 50.13, 18.27 41.32, 35.26 20.34 M4.77 61.81 C21.93 45.79, 35.52 26.77, 43.51 16.17 M5.32 62.69 C14.12 50.62, 24.36 40.13, 45.78 14.69 M5.92 69.09 C24.49 46.67, 41.44 25.95, 50.19 15 M5.01 68.43 C19.76 50.07, 35.74 32.67, 51.56 15.89 M6.46 73.15 C23.47 54.85, 38.2 34.2, 58.62 14.65 M6.26 73.3 C20.63 55.49, 34.89 40.11, 56.36 14.52 M8.87 73.99 C21.66 60.53, 39.3 44.22, 63.3 11.69 M8.13 75.26 C19.72 62.2, 31.01 49.34, 64.74 12.77 M11.3 76.57 C30.41 54.73, 49.24 33.16, 68.92 9.88 M13.03 79.03 C26.26 62.39, 38.19 47.64, 69.84 11.61 M14.86 79.77 C33.88 58.23, 50.01 37.48, 77.68 9.29 M14.46 81.14 C37.09 54.83, 60.02 30.29, 76.04 9.12 M17.71 83.58 C40.18 57.39, 67.33 30.34, 85.43 7.55 M18.51 84.22 C36.13 62.19, 55.57 39.59, 83.59 7.72 M21.14 84 C45.8 55.44, 73.9 25.68, 91.69 7.01 M20.29 86.02 C44.59 60.64, 66.58 35.03, 89.98 6.53 M25.62 90.03 C45.12 63.13, 68.11 39.58, 98.39 4.41 M23.47 89.43 C48.64 60.21, 71.88 31.99, 97.09 5.05 M28.85 90.56 C43.73 72.67, 59.87 54.2, 103.96 2.65 M26.67 91.54 C51.77 61.64, 75.99 33.96, 102.74 4.06 M29.84 95.35 C57.01 64.52, 80.54 34.14, 108 2.1 M30.98 93.64 C58.86 60.49, 88.23 26.99, 107.67 5.02 M35.65 97.18 C53.71 73.87, 74.64 48.94, 114.7 2.88 M33.08 95.53 C66.09 58.9, 97.24 22.46, 114.47 3.47 M40.08 98.31 C58.52 74.58, 77.39 55.44, 120.27 2.28 M37.38 97.04 C60.8 71.7, 83.4 46.38, 119.35 2.48 M41.14 98.17 C68.78 70.27, 92.45 37.56, 124.97 3.68 M41.83 97.79 C62.63 75.76, 82.61 52.17, 125.59 2.72 M44.35 102.54 C62.32 78.16, 82.24 58.15, 131.18 3.5 M44.7 101.53 C65.53 77.02, 86.16 53.26, 130.02 1.48 M50.85 100.72 C70.09 74.88, 94.11 51.11, 135.46 0.14 M49.04 101.33 C83.98 61.37, 117.81 22.81, 136.49 2.7 M55.5 104.75 C84.05 67.15, 115.54 32.73, 142.6 0.91 M54.21 103.95 C80.69 73.43, 106.37 43.82, 142.34 2.03 M56.87 103.83 C76.4 81.5, 96.67 58.64, 150.37 2.2 M56.28 106.34 C80.13 79.53, 103.8 52.83, 148.52 0.05 M63.33 107.5 C86.97 78.07, 115.58 48.33, 152.3 0.22 M61.51 105.88 C87 78.01, 113.17 49.5, 152.78 1.11 M65.82 106.11 C88.6 79.93, 111.16 55.62, 158.93 1.89 M65.55 106.97 C87.91 82.65, 108.26 60.89, 158.39 1.34 M71.85 109.45 C100.66 72.69, 132.19 38.6, 162 2.03 M70.81 108.8 C105.63 67.87, 141.17 26.99, 162.63 1.9 M75.6 109.74 C99.38 81.62, 122.8 53.49, 167.79 3.32 M75.02 108.34 C112.04 66.19, 148.73 24.08, 167.67 2.08 M79.32 109.58 C104.76 82.88, 126.92 56.42, 173.91 4.24 M79.97 109.42 C102.27 85.98, 123.49 61.55, 173.59 3.26 M83.37 112.3 C103.51 87.64, 123.62 64.3, 176.6 4.71 M84 111.25 C110.18 82.14, 136.77 51.61, 177.28 3.74 M88.26 113.23 C121.71 70.78, 155.75 33.41, 180.22 5.86 M89.46 112.67 C111.49 87.51, 132 63.24, 182.19 4.51 M94.8 112.89 C110.88 92.59, 131.32 69.4, 187.89 3.87 M93.22 113.48 C117.5 84.15, 141.85 55.62, 186.45 4.26 M96.08 113.36 C123.83 80.24, 153.34 48.07, 191.65 5.49 M98.08 113.92 C132.07 74.56, 165.97 36.03, 191.4 4.93 M101.53 115.51 C138.16 75.71, 169.22 35.28, 195.09 5.94 M103.25 113.98 C134.36 80.28, 165.06 43.64, 197.67 4.75 M107.07 114.22 C130.89 87.13, 157.17 55.67, 201.53 6.1 M105.88 115.71 C130.63 87.98, 152.04 62.37, 199.7 7.52 M113.08 116.74 C143.64 84.13, 171.88 49.57, 206.58 8.19 M111.44 115.69 C144.39 76.98, 178.06 39.99, 205.79 9.33 M113.17 119.44 C145.71 80.19, 181.68 43.81, 210.39 9.47 M113.92 118.85 C137.54 90.58, 163.04 63.41, 208.66 10.45 M120.85 117.48 C154.54 76.52, 190.03 39.13, 212.91 11.43 M120.91 118.22 C141.44 94.1, 161.91 71.13, 214.21 11.52 M125.08 119.48 C161.44 76.89, 199.53 36.37, 219.35 11.48 M126.49 118.77 C162.59 76.61, 200.14 34.18, 217.32 11.36 M129.5 115.98 C159.84 83.41, 190.2 47.42, 224.24 11.86 M130.92 117.88 C158.62 87.42, 184.85 56.65, 223.33 13.04 M137.9 119.89 C166.16 83.78, 195.28 47.86, 225.45 14.62 M135.57 118.92 C157.48 94.59, 176.85 71.54, 226.51 14.85 M141.61 119.38 C163.9 94.62, 184.01 68.05, 232.3 14.51 M142.58 118.22 C174.65 82.1, 205.34 45.33, 231.52 14.36 M146.22 116.84 C171.55 88.67, 199.79 57.01, 235.61 17.95 M147.11 119.18 C177.41 83.44, 208.14 46.52, 235.89 15.46 M150.99 117.85 C178.13 91.66, 199.71 67.14, 239.74 15.98 M153.08 117.23 C173.91 93.71, 195.72 68.73, 239.45 18.37 M155.57 118.07 C181.68 89.62, 207.98 62.85, 244.68 19.15 M157.33 117.89 C184.43 87.55, 212.18 57.61, 244.87 18.68 M163.36 116.2 C183.48 95.67, 201.01 77.51, 249.44 19.25 M163.41 117.83 C184.6 94.88, 205.23 71.12, 248.42 20.16 M169 116.17 C192.07 92.77, 210.94 68.03, 252.09 21.98 M168.4 118.08 C193.65 87.57, 218.36 58.86, 250.39 21.48 M175.01 119.06 C206.21 79.82, 241.15 44.98, 255.85 26.14 M174.03 116.16 C198.95 88.63, 222.16 62.3, 254.67 24.55 M179.86 116.06 C202.85 86.51, 226.67 62.13, 259.15 26.56 M180.14 115.99 C201.11 93.97, 221.86 70.4, 257.13 27.51 M185.44 114.4 C214.27 81.75, 245.82 46.75, 262.32 28.03 M186.53 116.06 C211.62 86.42, 237.78 55.96, 261.77 27.79 M193.71 113.03 C207.53 94.61, 224.68 74.47, 265.72 28.8 M193.01 114.07 C220.46 82.3, 247.27 50.84, 265.23 29.62 M199.45 115.56 C218.49 88.71, 241.21 64.99, 268.43 34.43 M198.64 114.09 C214.19 95.16, 231 77.4, 268.88 33.08 M203.68 113.2 C229.1 84.18, 258.01 54.44, 273.63 33.52 M204.42 112.47 C229.77 82.84, 254.92 53.46, 272.65 33.86 M210.38 113.7 C221.27 94.53, 235.42 82.22, 276.7 34.66 M210.55 112.98 C225.03 97.68, 238.29 80.76, 276.48 35.33 M216.49 111.52 C232.04 92.78, 245.88 77.92, 277.93 38.86 M217.74 110.02 C230.75 94.06, 245.6 77.83, 279.5 39.03 M224.09 109.56 C244.83 83.7, 267.1 56.32, 281.91 44.7 M223.86 108.44 C245.23 83.36, 268.39 57.2, 280.74 42.94 M231.7 104.3 C251.08 83.71, 268.25 65.29, 282.24 48.8 M232.6 103.77 C245.33 89.65, 259.13 74.9, 282.34 48.07 M242.42 103.02 C255.08 84.42, 270.33 71.63, 286.98 49.78 M240.04 101.61 C254.45 84.43, 269.33 68.75, 284.34 51.45 M247.24 100.96 C261.92 85.83, 272.22 69.49, 286.71 52.9 M247.36 99.75 C256.47 89.86, 265.98 79.5, 287.15 54.92 M256.47 95.27 C265.38 83.89, 276.65 69.84, 283.9 62.07 M256.7 96.36 C263.36 89.6, 268.69 81.07, 284.4 64.17 M271.02 85.71 C275.13 82.54, 277.67 75.59, 280.98 71.43 M269.85 85.65 C273.03 82.37, 275.27 79.03, 283.19 72.46" stroke="#b2f2bb" stroke-width="0.5" fill="none"></path><path d="M147.3 -0.09 C163.83 -0.54, 182.46 2.32, 198.27 5.2 C214.07 8.07, 229.61 12.35, 242.12 17.16 C254.63 21.96, 265.96 27.96, 273.32 34.01 C280.68 40.05, 285.09 46.47, 286.27 53.43 C287.45 60.4, 285.77 68.96, 280.4 75.8 C275.04 82.63, 264.98 88.91, 254.09 94.43 C243.19 99.95, 229.8 105.43, 215.04 108.91 C200.28 112.4, 182.66 114.25, 165.51 115.35 C148.36 116.44, 128.95 116.91, 112.13 115.49 C95.32 114.06, 78.74 110.82, 64.62 106.8 C50.49 102.78, 37.44 97.22, 27.39 91.35 C17.35 85.47, 8.79 78.3, 4.32 71.55 C-0.15 64.79, -1.35 57.56, 0.57 50.82 C2.49 44.08, 7.79 37.34, 15.84 31.11 C23.89 24.88, 35.63 18.06, 48.88 13.45 C62.13 8.84, 76 5.6, 95.36 3.46 C114.72 1.33, 150.64 0.61, 165.04 0.63 C179.44 0.65, 182.26 2.45, 181.78 3.58 M92.76 4.63 C107.59 1.31, 126.78 0.67, 143.86 0.36 C160.94 0.04, 179.54 0.44, 195.24 2.72 C210.94 5.01, 225.22 9.02, 238.08 14.06 C250.93 19.1, 264.28 26.58, 272.37 32.97 C280.46 39.35, 285.22 45.49, 286.62 52.39 C288.02 59.29, 285.65 67.55, 280.76 74.35 C275.87 81.15, 267.49 87.69, 257.28 93.19 C247.07 98.69, 234.37 103.79, 219.48 107.37 C204.59 110.95, 185.17 113.41, 167.94 114.67 C150.72 115.92, 132.73 116.03, 116.14 114.89 C99.55 113.75, 82.87 111.53, 68.42 107.85 C53.96 104.17, 39.82 98.24, 29.41 92.79 C19 87.33, 10.57 81.65, 5.98 75.11 C1.4 68.56, 0.52 60.61, 1.9 53.51 C3.28 46.42, 6.78 38.87, 14.24 32.55 C21.7 26.23, 33.78 20.12, 46.68 15.6 C59.58 11.07, 83.82 7.15, 91.62 5.41 C99.42 3.67, 92.85 4.63, 93.48 5.16" stroke="#1e1e1e" stroke-width="1" fill="none"></path></g><g transform="translate(901.8488382187488 453.0979916668445) rotate(0 86.97991943359375 25)"><text x="86.97991943359375" y="0" font-family="Virgil, Segoe UI Emoji" font-size="20px" fill="#1e1e1e" text-anchor="middle" style="white-space: pre;" direction="ltr" dominant-baseline="text-before-edge">new class </text><text x="86.97991943359375" y="25" font-family="Virgil, Segoe UI Emoji" font-size="20px" fill="#1e1e1e" text-anchor="middle" style="white-space: pre;" direction="ltr" dominant-baseline="text-before-edge">PortForwardServe</text></g><g stroke-linecap="round"><g transform="translate(840.1506934677092 484.631407785664) rotate(0 -55.7543429982866 -0.08025693879770301)"><path d="M-1.16 0.55 C-19.66 0.54, -92.79 -0.61, -110.92 -0.86 M0.43 -0.21 C-18.24 0.06, -93.49 0.61, -111.94 0.7" stroke="#1e1e1e" stroke-width="1" fill="none"></path></g><g transform="translate(840.1506934677092 484.631407785664) rotate(0 -55.7543429982866 -0.08025693879770301)"><path d="M-82.91 -9.96 C-92.38 -5.43, -101.11 -1.73, -110.65 1.61 M-83.38 -10.41 C-93.7 -5.68, -103.19 -1.99, -111.87 -0.12" stroke="#1e1e1e" stroke-width="1" fill="none"></path></g><g transform="translate(840.1506934677092 484.631407785664) rotate(0 -55.7543429982866 -0.08025693879770301)"><path d="M-82.77 10.56 C-92.15 8.83, -100.92 6.26, -110.65 1.61 M-83.25 10.11 C-93.46 7.51, -103 3.87, -111.87 -0.12" stroke="#1e1e1e" stroke-width="1" fill="none"></path></g></g><mask></mask><g mask="url(#mask-L0YRAcKTcti4CNNSA2r9Q)" stroke-linecap="round"><g transform="translate(751.4647587910054 700.454705337412) rotate(0 127.15369970754469 -18.01684155888836)"><path d="M-0.13 0.06 C42.72 -3.39, 255.31 -14.41, 255.97 -20.11 C256.63 -25.81, 45.94 -31.8, 3.82 -34.15 M-1.66 -0.96 C41.21 -4.25, 254.58 -12.73, 255.46 -18.59 C256.35 -24.44, 45.6 -33.11, 3.65 -36.09" stroke="#1e1e1e" stroke-width="1" fill="none"></path></g><g transform="translate(751.4647587910054 700.454705337412) rotate(0 127.15369970754469 -18.01684155888836)"><path d="M32.45 -43.4 C26.51 -41.15, 22.02 -40.38, 4.8 -37.63 M32.6 -44.75 C21.82 -41.52, 9.71 -38.91, 4.44 -35.95" stroke="#1e1e1e" stroke-width="1" fill="none"></path></g><g transform="translate(751.4647587910054 700.454705337412) rotate(0 127.15369970754469 -18.01684155888836)"><path d="M31.33 -22.91 C25.53 -24.83, 21.27 -28.22, 4.8 -37.63 M31.49 -24.25 C21.05 -29.15, 9.39 -34.66, 4.44 -35.95" stroke="#1e1e1e" stroke-width="1" fill="none"></path></g></g><mask id="mask-L0YRAcKTcti4CNNSA2r9Q"><rect x="0" y="0" fill="#fff" width="1106.595560796142" height="835.3850054674547"></rect><rect x="900.8856456350093" y="655.3749558606828" fill="#000" width="211.41983032226562" height="50" opacity="1"></rect></mask><g transform="translate(900.8856456350093 655.3749558606827) rotate(0 -22.267187136459228 27.062907917840846)"><text x="105.70991516113281" y="0" font-family="Virgil, Segoe UI Emoji" font-size="20px" fill="#1e1e1e" text-anchor="middle" style="white-space: pre;" direction="ltr" dominant-baseline="text-before-edge">All ports need to be </text><text x="105.70991516113281" y="25" font-family="Virgil, Segoe UI Emoji" font-size="20px" fill="#1e1e1e" text-anchor="middle" style="white-space: pre;" direction="ltr" dominant-baseline="text-before-edge">forwarded</text></g><g stroke-linecap="round" transform="translate(480.553486924598 770.179806103881) rotate(0 135 22)"><path d="M11 0 M11 0 C103.8 -1.19, 195.41 -3.2, 259 0 M11 0 C109.51 1.41, 208.28 1.38, 259 0 M259 0 C266.47 -1.65, 271.57 3.94, 270 11 M259 0 C267.08 1.8, 269.2 3.35, 270 11 M270 11 C268.09 16.5, 268.6 19.3, 270 33 M270 11 C269.97 18.67, 270.23 25.54, 270 33 M270 33 C271.96 38.86, 264.48 45.2, 259 44 M270 33 C272.17 41.44, 267.65 44.55, 259 44 M259 44 C173.86 43.77, 91.97 43.63, 11 44 M259 44 C188.99 44.77, 119.46 44.67, 11 44 M11 44 C1.9 43.54, -0.78 40.17, 0 33 M11 44 C4.74 44.83, 0.81 40.08, 0 33 M0 33 C0.97 24.62, 0.35 18.28, 0 11 M0 33 C0.69 25.84, -0.81 17.96, 0 11 M0 11 C1.98 5.12, 1.68 -0.93, 11 0 M0 11 C1.87 2.72, 4.66 2.25, 11 0" stroke="#1e1e1e" stroke-width="1" fill="none"></path></g><g transform="translate(486.88359556717614 779.679806103881) rotate(0 128.66989135742188 12.5)"><text x="128.66989135742188" y="0" font-family="Virgil, Segoe UI Emoji" font-size="20px" fill="#1e1e1e" text-anchor="middle" style="white-space: pre;" direction="ltr" dominant-baseline="text-before-edge">container_portforward_cb</text></g><g stroke-linecap="round"><g transform="translate(601.4741724202072 815.7353582685944) rotate(0 -0.6670501640689963 40.06765464410389)"><path d="M-0.92 1.16 C-1.26 14.09, -1.32 65.3, -1.45 78.3 M0.79 0.72 C0.3 13.73, -1.61 66.12, -2.13 79.42" stroke="#1e1e1e" stroke-width="1" fill="none"></path></g><g transform="translate(601.4741724202072 815.7353582685944) rotate(0 -0.6670501640689963 40.06765464410389)"><path d="M-9.4 51.72 C-9.33 61.29, -4.7 72.27, -2.09 79.56 M-11 51.65 C-9.45 56.92, -7.92 62.81, -2.41 78.51" stroke="#1e1e1e" stroke-width="1" fill="none"></path></g><g transform="translate(601.4741724202072 815.7353582685944) rotate(0 -0.6670501640689963 40.06765464410389)"><path d="M11.11 52.49 C4.09 61.63, 1.63 72.35, -2.09 79.56 M9.51 52.41 C6.59 57.54, 3.67 63.27, -2.41 78.51" stroke="#1e1e1e" stroke-width="1" fill="none"></path></g></g><mask></mask><g stroke-linecap="round" transform="translate(473.3312240122717 897.5131428280563) rotate(0 136 17.5)"><path d="M8.75 0 M8.75 0 C64.42 -0.49, 122.36 0.41, 263.25 0 M8.75 0 C86.21 1.81, 162.68 2.34, 263.25 0 M263.25 0 C268.39 -0.28, 270.36 2.02, 272 8.75 M263.25 0 C268.44 -2.09, 272.8 1.41, 272 8.75 M272 8.75 C272.49 12.78, 272.32 17.35, 272 26.25 M272 8.75 C271.36 13.64, 273 17.9, 272 26.25 M272 26.25 C273.14 32.56, 269.85 33.41, 263.25 35 M272 26.25 C270.06 30.43, 271.17 36.25, 263.25 35 M263.25 35 C166.5 35.49, 68.98 36.61, 8.75 35 M263.25 35 C185.7 34.46, 109.15 34.82, 8.75 35 M8.75 35 C3.62 34.78, 0.7 33.73, 0 26.25 M8.75 35 C4.89 36.33, -1.16 32.7, 0 26.25 M0 26.25 C1.69 22.26, 0.14 14.36, 0 8.75 M0 26.25 C-1.04 21.45, 0.54 17.09, 0 8.75 M0 8.75 C0.87 4.87, 1.44 -0.32, 8.75 0 M0 8.75 C-0.06 5.11, 1.64 -1.55, 8.75 0" stroke="#1e1e1e" stroke-width="1" fill="none"></path></g><g transform="translate(499.0213256358069 902.5131428280563) rotate(0 110.30989837646484 12.5)"><text x="110.30989837646484" y="0" font-family="Virgil, Segoe UI Emoji" font-size="20px" fill="#1e1e1e" text-anchor="middle" style="white-space: pre;" direction="ltr" dominant-baseline="text-before-edge">portforward_container</text></g><g stroke-linecap="round"><g transform="translate(600.4111504975323 933.9576076175528) rotate(0 0.15793562475502654 26.16566131085024)"><path d="M0.96 0.02 C0.96 8.73, 0.25 43.42, 0.28 52.33 M0 -1.01 C-0.17 7.81, -0.76 44.03, -0.62 53.34" stroke="#1e1e1e" stroke-width="1" fill="none"></path></g><g transform="translate(600.4111504975323 933.9576076175528) rotate(0 0.15793562475502654 26.16566131085024)"><path d="M-9.63 28.41 C-8.38 37.9, -3.52 45.12, 0.95 52.64 M-9.95 27.36 C-6.94 34.83, -5.35 43.08, -0.53 53.58" stroke="#1e1e1e" stroke-width="1" fill="none"></path></g><g transform="translate(600.4111504975323 933.9576076175528) rotate(0 0.15793562475502654 26.16566131085024)"><path d="M8.6 28.45 C3.94 38.07, 2.89 45.28, 0.95 52.64 M8.28 27.41 C6.08 34.78, 2.45 43.02, -0.53 53.58" stroke="#1e1e1e" stroke-width="1" fill="none"></path></g></g><mask></mask><g stroke-linecap="round"><g transform="translate(604.4423758134869 1048.8464558163375) rotate(0 -1.0490711288702244 32.84004698437636)"><path d="M0.08 -0.99 C-0.36 9.85, -1.33 53.91, -1.73 65.05 M-1.33 1.1 C-1.94 12.16, -1.93 56.19, -2.18 66.67" stroke="#1e1e1e" stroke-width="1" fill="none"></path></g><g transform="translate(604.4423758134869 1048.8464558163375) rotate(0 -1.0490711288702244 32.84004698437636)"><path d="M-13.79 39.94 C-8.08 49.77, -3 59.17, -2.46 65.04 M-11.79 37.72 C-10.33 46.11, -7.04 53.15, -2.23 66.81" stroke="#1e1e1e" stroke-width="1" fill="none"></path></g><g transform="translate(604.4423758134869 1048.8464558163375) rotate(0 -1.0490711288702244 32.84004698437636)"><path d="M6.73 40.16 C4.64 49.92, 1.93 59.24, -2.46 65.04 M8.73 37.94 C4.95 46.09, 3 53.07, -2.23 66.81" stroke="#1e1e1e" stroke-width="1" fill="none"></path></g></g><mask></mask><g stroke-linecap="round" transform="translate(455.7201400278967 1118.9576008358688) rotate(0 158.5 21)"><path d="M10.5 0 M10.5 0 C101.56 -1.23, 193.38 -2.23, 306.5 0 M10.5 0 C95 0.31, 180.17 0.49, 306.5 0 M306.5 0 C312.2 0.84, 317.18 3.97, 317 10.5 M306.5 0 C313.39 0.33, 317.49 2.34, 317 10.5 M317 10.5 C318.05 20.75, 317.8 28.37, 317 31.5 M317 10.5 C316.24 16.58, 317.99 24.64, 317 31.5 M317 31.5 C318.64 38.15, 313.8 42.63, 306.5 42 M317 31.5 C317.26 38.86, 315.35 42.08, 306.5 42 M306.5 42 C243.79 41.84, 181.85 41.67, 10.5 42 M306.5 42 C221.57 44.23, 134.99 44, 10.5 42 M10.5 42 C3.52 42.61, 0.36 40.49, 0 31.5 M10.5 42 C5.18 42.25, -1.78 37.38, 0 31.5 M0 31.5 C-1.08 24.74, -0.98 15.6, 0 10.5 M0 31.5 C0.13 24.1, -0.4 14.12, 0 10.5 M0 10.5 C1.28 5.08, 2.56 -0.81, 10.5 0 M0 10.5 C2.27 1.22, 2.84 2.06, 10.5 0" stroke="#1e1e1e" stroke-width="1" fill="none"></path></g><g transform="translate(484.4202590464514 1127.4576008358688) rotate(0 129.7998809814453 12.5)"><text x="129.7998809814453" y="0" font-family="Virgil, Segoe UI Emoji" font-size="20px" fill="#1e1e1e" text-anchor="middle" style="white-space: pre;" direction="ltr" dominant-baseline="text-before-edge">do_portforward_container</text></g><g stroke-linecap="round"><g transform="translate(599.5860696928333 1161.9605861389186) rotate(0 -1.298767388946544 30.76390841353799)"><path d="M-0.42 -0.17 C-1.18 9.94, -3.64 51.37, -4.16 61.57 M1.56 -1.3 C1.14 8.88, -0.96 52.32, -1.96 62.83" stroke="#1e1e1e" stroke-width="1" fill="none"></path></g><g transform="translate(599.5860696928333 1161.9605861389186) rotate(0 -1.298767388946544 30.76390841353799)"><path d="M-10.57 32.37 C-8.19 43.06, -6.34 53.91, -3.27 61.52 M-10.34 34.15 C-7.2 43.34, -3.59 52.96, -2.89 63.43" stroke="#1e1e1e" stroke-width="1" fill="none"></path></g><g transform="translate(599.5860696928333 1161.9605861389186) rotate(0 -1.298767388946544 30.76390841353799)"><path d="M9.9 33.76 C5.46 43.91, 0.5 54.3, -3.27 61.52 M10.13 35.54 C6.27 44.3, 2.88 53.45, -2.89 63.43" stroke="#1e1e1e" stroke-width="1" fill="none"></path></g></g><mask></mask><g stroke-linecap="round" transform="translate(449.6244032647188 1234.8639147046367) rotate(0 165.5 32)"><path d="M16 0 M16 0 C94.61 1.39, 173.2 2.31, 315 0 M16 0 C86.24 -0.75, 156.31 -0.82, 315 0 M315 0 C326.1 -1.01, 332.96 3.86, 331 16 M315 0 C323.54 1.39, 333.17 6.44, 331 16 M331 16 C329.48 25.74, 329.64 40.67, 331 48 M331 16 C331.41 27.66, 331.37 38.85, 331 48 M331 48 C332.61 58.74, 323.9 63.54, 315 64 M331 48 C330.11 58.48, 326.74 64.83, 315 64 M315 64 C215.97 66.03, 115.37 64.03, 16 64 M315 64 C217.44 65.4, 120.15 64.75, 16 64 M16 64 C3.79 63.03, 1.98 60.12, 0 48 M16 64 C3.05 62.93, 1.87 57.72, 0 48 M0 48 C-0.63 36.96, 1.6 24.92, 0 16 M0 48 C-0.68 40.15, 0.78 32.11, 0 16 M0 16 C-0.57 7.13, 5.58 0.67, 16 0 M0 16 C-1.71 3.46, 6.94 1.61, 16 0" stroke="#1e1e1e" stroke-width="1" fill="none"></path></g><g transform="translate(513.5545027520235 1254.3639147046367) rotate(0 101.56990051269531 12.5)"><text x="101.56990051269531" y="0" font-family="Virgil, Segoe UI Emoji" font-size="20px" fill="#1e1e1e" text-anchor="middle" style="white-space: pre;" direction="ltr" dominant-baseline="text-before-edge">pod_io_copy_thread</text></g><g stroke-linecap="round"><g transform="translate(592.7003148947882 1300.3417934804293) rotate(0 1.5833705289183797 30.420694540511477)"><path d="M0.42 -0.78 C0.76 9.67, 1.33 51.26, 1.68 61.63 M-0.82 1.42 C-0.07 11.61, 3.54 49.52, 3.99 59.77" stroke="#1e1e1e" stroke-width="1" fill="none"></path></g><g transform="translate(592.7003148947882 1300.3417934804293) rotate(0 1.5833705289183797 30.420694540511477)"><path d="M-9.58 31.08 C-4.35 39.97, -1.38 47.13, 4.27 60.2 M-9.2 32.99 C-4 39.79, -1.31 46.38, 4.37 58.97" stroke="#1e1e1e" stroke-width="1" fill="none"></path></g><g transform="translate(592.7003148947882 1300.3417934804293) rotate(0 1.5833705289183797 30.420694540511477)"><path d="M10.89 29.61 C10.54 38.97, 7.94 46.53, 4.27 60.2 M11.27 31.51 C11.37 38.53, 8.95 45.49, 4.37 58.97" stroke="#1e1e1e" stroke-width="1" fill="none"></path></g></g><mask></mask><g stroke-linecap="round" transform="translate(10 1366.2514229057235) rotate(0 805.9196218573035 97.36736898503165)"><path d="M32 0 M32 0 C550.77 4.1, 1069.06 3.99, 1579.84 0 M32 0 C518.77 2.83, 1004.39 3.36, 1579.84 0 M1579.84 0 C1603.06 0.96, 1612.98 11.14, 1611.84 32 M1579.84 0 C1602.06 -1.83, 1609.9 9.02, 1611.84 32 M1611.84 32 C1612.21 83.37, 1613.19 134.37, 1611.84 162.73 M1611.84 32 C1612.01 73.06, 1612.5 114.49, 1611.84 162.73 M1611.84 162.73 C1612.77 184.79, 1601.88 194.52, 1579.84 194.73 M1611.84 162.73 C1612.65 185.96, 1603.15 196.06, 1579.84 194.73 M1579.84 194.73 C1193.61 194.94, 807.69 195.38, 32 194.73 M1579.84 194.73 C1098.73 192.01, 616.43 191.53, 32 194.73 M32 194.73 C12.29 193.91, 0.87 186.02, 0 162.73 M32 194.73 C8.97 194.37, -0.06 186.26, 0 162.73 M0 162.73 C2.46 129.82, 0.07 100.77, 0 32 M0 162.73 C0.5 136.82, -0.37 109.43, 0 32 M0 32 C1.39 12.07, 9.58 -1.77, 32 0 M0 32 C-0.21 11.21, 12.19 -2.19, 32 0" stroke="#1e1e1e" stroke-width="1" fill="none"></path></g><g transform="translate(86.1692973985837 1399.5529548898464) rotate(0 52.14994812011719 12.5)"><text x="0" y="0" font-family="Virgil, Segoe UI Emoji" font-size="20px" fill="#1e1e1e" text-anchor="start" style="white-space: pre;" direction="ltr" dominant-baseline="text-before-edge">PodIOCopy</text></g><g stroke-linecap="round" transform="translate(167.67598982151344 1466.8306272287493) rotate(0 145 31)"><path d="M15.5 0 M15.5 0 C95.79 0.45, 174.81 1.67, 274.5 0 M15.5 0 C74.81 -0.87, 133.07 -1.06, 274.5 0 M274.5 0 C285.6 -1.59, 288.31 3.73, 290 15.5 M274.5 0 C286.92 1.25, 291.89 4.77, 290 15.5 M290 15.5 C290.41 26.88, 290.17 33.26, 290 46.5 M290 15.5 C290.35 24.45, 290.23 32.57, 290 46.5 M290 46.5 C290.7 58.48, 286.55 63.15, 274.5 62 M290 46.5 C288.84 57.45, 284.86 62.7, 274.5 62 M274.5 62 C192.29 62.28, 108.94 65.11, 15.5 62 M274.5 62 C178.67 60.71, 81.88 61.82, 15.5 62 M15.5 62 C3.69 61.68, -0.05 58.74, 0 46.5 M15.5 62 C3.89 60.45, 1.47 58.65, 0 46.5 M0 46.5 C-1.86 38.09, 1.92 31.07, 0 15.5 M0 46.5 C0.93 36.86, -0.31 24.95, 0 15.5 M0 15.5 C-0.18 5.64, 6.49 -1.9, 15.5 0 M0 15.5 C1.16 5.83, 3.48 0.11, 15.5 0" stroke="#1e1e1e" stroke-width="1" fill="none"></path></g><g transform="translate(204.14608259495094 1485.3306272287493) rotate(0 108.5299072265625 12.5)"><text x="108.5299072265625" y="0" font-family="Virgil, Segoe UI Emoji" font-size="20px" fill="#1e1e1e" text-anchor="middle" style="white-space: pre;" direction="ltr" dominant-baseline="text-before-edge">enter_net_namespace</text></g><g stroke-linecap="round"><g transform="translate(461.0284190341138 1500.6385607241466) rotate(0 83.9793280689783 -0.34711763719860755)"><path d="M1.18 -0.89 C28.72 -0.82, 137.73 -0.3, 165.49 -0.21 M0.34 1.26 C28.21 1.04, 139.75 -1.35, 167.62 -1.96" stroke="#1e1e1e" stroke-width="1" fill="none"></path></g><g transform="translate(461.0284190341138 1500.6385607241466) rotate(0 83.9793280689783 -0.34711763719860755)"><path d="M138.18 7.05 C149.91 7.02, 158.65 2.79, 168.1 -1.18 M140.56 9.45 C146.73 6.54, 152.22 4.63, 167.73 -1.8" stroke="#1e1e1e" stroke-width="1" fill="none"></path></g><g transform="translate(461.0284190341138 1500.6385607241466) rotate(0 83.9793280689783 -0.34711763719860755)"><path d="M137.74 -13.46 C149.5 -6.9, 158.39 -4.54, 168.1 -1.18 M140.13 -11.07 C146.22 -9.45, 151.81 -6.84, 167.73 -1.8" stroke="#1e1e1e" stroke-width="1" fill="none"></path></g></g><mask></mask><g stroke-linecap="round" transform="translate(638.9408566961248 1466.3626668766262) rotate(0 145 31)"><path d="M15.5 0 M15.5 0 C119.58 3.43, 222.5 2.84, 274.5 0 M15.5 0 C98.66 1.08, 183.9 2.09, 274.5 0 M274.5 0 C286.48 -0.35, 290.3 5.8, 290 15.5 M274.5 0 C285.09 0.36, 291.85 5.25, 290 15.5 M290 15.5 C289.77 22.99, 290.65 29.32, 290 46.5 M290 15.5 C290.97 25.04, 289.61 33.69, 290 46.5 M290 46.5 C290.02 57.45, 285.2 63.99, 274.5 62 M290 46.5 C291.68 57.09, 283.06 60.88, 274.5 62 M274.5 62 C170.36 61.24, 67.06 60.63, 15.5 62 M274.5 62 C171.48 62.43, 68.05 61.13, 15.5 62 M15.5 62 C6.45 63.58, -0.94 56.02, 0 46.5 M15.5 62 C7.44 59.72, -0.66 58.9, 0 46.5 M0 46.5 C-1.74 38.21, 1.3 26.05, 0 15.5 M0 46.5 C0.69 38.99, 0.53 33.68, 0 15.5 M0 15.5 C-1.47 5.27, 4.71 0.77, 15.5 0 M0 15.5 C1.63 7.2, 6.44 -1.67, 15.5 0" stroke="#1e1e1e" stroke-width="1" fill="none"></path></g><g transform="translate(644.3209836492498 1472.3626668766262) rotate(0 139.619873046875 25)"><text x="139.619873046875" y="0" font-family="Virgil, Segoe UI Emoji" font-size="20px" fill="#1e1e1e" text-anchor="middle" style="white-space: pre;" direction="ltr" dominant-baseline="text-before-edge">do socket_stream_connect </text><text x="139.619873046875" y="25" font-family="Virgil, Segoe UI Emoji" font-size="20px" fill="#1e1e1e" text-anchor="middle" style="white-space: pre;" direction="ltr" dominant-baseline="text-before-edge">for all port</text></g><g stroke-linecap="round"><g transform="translate(930.363078918347 1493.5043145672057) rotate(0 72.6046004805063 -1.9375110235425268)"><path d="M0.69 0.28 C24.77 -0.5, 121.71 -3.43, 145.62 -4.16 M-0.41 -0.61 C23.45 -1.33, 120.43 -2.69, 144.92 -3.12" stroke="#1e1e1e" stroke-width="1" fill="none"></path></g><g transform="translate(930.363078918347 1493.5043145672057) rotate(0 72.6046004805063 -1.9375110235425268)"><path d="M117.37 8.35 C126.3 1.51, 137.51 0.79, 146.01 -1.48 M117 7.74 C125.6 4.5, 131.83 1.21, 144.53 -3.2" stroke="#1e1e1e" stroke-width="1" fill="none"></path></g><g transform="translate(930.363078918347 1493.5043145672057) rotate(0 72.6046004805063 -1.9375110235425268)"><path d="M117.04 -12.17 C126.2 -10.92, 137.54 -3.55, 146.01 -1.48 M116.68 -12.78 C125.4 -10.22, 131.72 -7.71, 144.53 -3.2" stroke="#1e1e1e" stroke-width="1" fill="none"></path></g></g><mask></mask><g stroke-linecap="round" transform="translate(1089.8201050757552 1458.5105306696332) rotate(0 207.5 32)"><path d="M16 0 M16 0 C151.85 -1.88, 288.74 0.2, 399 0 M16 0 C151.88 0.58, 287.65 0.49, 399 0 M399 0 C411.28 0.07, 413.23 4.87, 415 16 M399 0 C408.77 -0.19, 416.07 6.16, 415 16 M415 16 C416.61 28.45, 416.12 36.45, 415 48 M415 16 C415.18 27.45, 415.73 37.02, 415 48 M415 48 C413.45 57.69, 411.65 65.45, 399 64 M415 48 C412.71 57.6, 411.54 63.05, 399 64 M399 64 C267.32 62.28, 137.16 61.65, 16 64 M399 64 C309.59 65.56, 221.33 65.21, 16 64 M16 64 C4.76 65.79, 0.25 59.33, 0 48 M16 64 C3.63 62.12, 1.6 60.28, 0 48 M0 48 C0.76 41.46, -1.62 33.27, 0 16 M0 48 C0.01 37.87, 0.94 27.85, 0 16 M0 16 C1.11 3.88, 6.28 -1.96, 16 0 M0 16 C0.54 5.11, 3.27 -0.85, 16 0" stroke="#1e1e1e" stroke-width="1" fill="none"></path></g><g transform="translate(1163.6002411841537 1478.0105306696332) rotate(0 133.71986389160156 12.5)"><text x="133.71986389160156" y="0" font-family="Virgil, Segoe UI Emoji" font-size="20px" fill="#1e1e1e" text-anchor="middle" style="white-space: pre;" direction="ltr" dominant-baseline="text-before-edge">do_portforward_epoll_loop</text></g><g stroke-linecap="round"><g transform="translate(1208.4357570545262 1459.2938039738085) rotate(0 0.7217207762324733 -108.37919139768283)"><path d="M1.09 0.65 C1.42 -35.44, 1.14 -181.17, 0.99 -217.41 M0.2 -0.05 C0.55 -35.88, 0.67 -179.5, 0.56 -215.98" stroke="#1e1e1e" stroke-width="1" fill="none"></path></g><g transform="translate(1208.4357570545262 1459.2938039738085) rotate(0 0.7217207762324733 -108.37919139768283)"><path d="M11.93 -186.16 C8.48 -193.48, 7.24 -199.64, 0.87 -214.37 M10.45 -187.88 C8.43 -196.02, 5.2 -205.04, 0.91 -215.16" stroke="#1e1e1e" stroke-width="1" fill="none"></path></g><g transform="translate(1208.4357570545262 1459.2938039738085) rotate(0 0.7217207762324733 -108.37919139768283)"><path d="M-8.59 -186.14 C-7.62 -193.66, -4.43 -199.81, 0.87 -214.37 M-10.07 -187.87 C-5.86 -195.96, -2.87 -204.99, 0.91 -215.16" stroke="#1e1e1e" stroke-width="1" fill="none"></path></g></g><mask></mask><g stroke-linecap="round" transform="translate(943.8913624416318 796.5406274640106) rotate(0 362.70420890093584 221.38185256532745)"><path d="M32 0 M32 0 C290.25 -2.05, 549.04 -2.08, 693.41 0 M32 0 C240.53 -0.18, 449.61 -0.12, 693.41 0 M693.41 0 C715.68 0.72, 726.11 10.45, 725.41 32 M693.41 0 C715.55 1.9, 727.38 11.99, 725.41 32 M725.41 32 C726.39 126.79, 727.21 222.02, 725.41 410.76 M725.41 32 C724.24 150.26, 723.05 267.37, 725.41 410.76 M725.41 410.76 C727.03 431.27, 715.61 444.72, 693.41 442.76 M725.41 410.76 C723.71 431.73, 714.68 444.96, 693.41 442.76 M693.41 442.76 C532.3 444.08, 369.61 445.25, 32 442.76 M693.41 442.76 C560.68 445.27, 427.55 444.81, 32 442.76 M32 442.76 C12.06 444.16, -1.08 430.33, 0 410.76 M32 442.76 C10.46 443.31, 1.53 429.91, 0 410.76 M0 410.76 C-0.59 277.83, -0.19 146.3, 0 32 M0 410.76 C-0.98 263.08, -1.12 116.51, 0 32 M0 32 C-1.79 9.93, 10.17 0.84, 32 0 M0 32 C-1.9 12.03, 12 -1.89, 32 0" stroke="#1e1e1e" stroke-width="1" fill="none"></path></g><g stroke-linecap="round" transform="translate(1174.9274839946136 818.0897984401333) rotate(0 85.5 30)"><path d="M15 0 M15 0 C69.52 0.01, 123.09 1.4, 156 0 M15 0 C57.4 0.24, 101.05 0.68, 156 0 M156 0 C166.71 -0.22, 171.7 6.65, 171 15 M156 0 C167.98 1.33, 169.84 5.61, 171 15 M171 15 C173.08 25.49, 171.31 31.52, 171 45 M171 15 C170.3 22.07, 172.11 29.67, 171 45 M171 45 C171.87 56.95, 164.52 59.68, 156 60 M171 45 C170.94 57.2, 164.72 58.45, 156 60 M156 60 C103.87 61.31, 51.37 58.76, 15 60 M156 60 C100.32 59.65, 46.81 61.17, 15 60 M15 60 C3.92 58.23, -0.18 55.48, 0 45 M15 60 C6.53 57.81, 1.16 55.66, 0 45 M0 45 C0.75 39.62, 1.75 32.51, 0 15 M0 45 C0.09 38.08, -1.04 30.98, 0 15 M0 15 C-0.5 5.84, 3.34 1.19, 15 0 M0 15 C1.33 3.11, 5.72 -1.18, 15 0" stroke="#1e1e1e" stroke-width="1" fill="none"></path></g><g transform="translate(1183.4575666972503 835.5897984401333) rotate(0 76.96991729736328 12.5)"><text x="76.96991729736328" y="0" font-family="Virgil, Segoe UI Emoji" font-size="20px" fill="#1e1e1e" text-anchor="middle" style="white-space: pre;" direction="ltr" dominant-baseline="text-before-edge">epoll_loop_open</text></g><g stroke-linecap="round"><g transform="translate(1253.5044067435629 879.243627326262) rotate(0 -0.6175644829669693 22.49982566635721)"><path d="M0.97 0.04 C0.58 7.44, -1.77 37.13, -2.2 44.59 M0.02 -0.98 C-0.03 6.58, 0.39 38.15, -0.05 45.98" stroke="#1e1e1e" stroke-width="1" fill="none"></path></g><g transform="translate(1253.5044067435629 879.243627326262) rotate(0 -0.6175644829669693 22.49982566635721)"><path d="M-7.31 23 C-5.52 30.54, -2.94 38.85, 0.67 46.69 M-6.52 25.35 C-5.69 31.11, -3.05 37.28, 0.13 46.98" stroke="#1e1e1e" stroke-width="1" fill="none"></path></g><g transform="translate(1253.5044067435629 879.243627326262) rotate(0 -0.6175644829669693 22.49982566635721)"><path d="M8.04 23.25 C5.05 30.83, 2.85 39.06, 0.67 46.69 M8.83 25.6 C5.22 31.42, 3.42 37.51, 0.13 46.98" stroke="#1e1e1e" stroke-width="1" fill="none"></path></g></g><mask></mask><g stroke-linecap="round" transform="translate(969.0253792596482 918.348764229823) rotate(0 345.5361661355053 149.1564398639049)"><path d="M32 0 M32 0 C270.46 1.91, 509.21 2.59, 659.07 0 M659.07 0 C681.12 0.71, 690.85 11.37, 691.07 32 M691.07 32 C691.92 122.06, 692.79 211.73, 691.07 266.31 M691.07 266.31 C691.43 289.63, 681.87 298.53, 659.07 298.31 M659.07 298.31 C519.99 300.01, 379.38 301.45, 32 298.31 M32 298.31 C9.84 299.18, 1.95 286.17, 0 266.31 M0 266.31 C-0.88 198.62, 1.13 134.53, 0 32 M0 32 C-0.94 9.86, 12.64 -1.98, 32 0" stroke="#1e1e1e" stroke-width="1.5" fill="none" stroke-dasharray="8 9"></path></g><g transform="translate(1011.0655712415539 942.5362921685846) rotate(0 75.69993591308594 12.5)"><text x="0" y="0" font-family="Virgil, Segoe UI Emoji" font-size="20px" fill="#1e1e1e" text-anchor="start" style="white-space: pre;" direction="ltr" dominant-baseline="text-before-edge">for all port do:</text></g><g stroke-linecap="round" transform="translate(987.3199556424529 987.7393059776714) rotate(0 146.78266825712092 106.22905928292931)"><path d="M32 0 M32 0 C92.57 -0.31, 151.73 -0.31, 261.57 0 M261.57 0 C284.55 1.72, 294.72 9.66, 293.57 32 M293.57 32 C293.94 82.49, 295.04 129.23, 293.57 180.46 M293.57 180.46 C292.02 200.82, 284.88 213.91, 261.57 212.46 M261.57 212.46 C214.83 214.78, 171.15 212.79, 32 212.46 M32 212.46 C10.35 212.41, 1.91 200.68, 0 180.46 M0 180.46 C-1.89 145.1, 1.03 109.38, 0 32 M0 32 C-0.57 12.46, 10.91 0.67, 32 0" stroke="#1e1e1e" stroke-width="1.5" fill="none" stroke-dasharray="8 9"></path></g><g stroke-linecap="round" transform="translate(1013.755915197787 995.4619969451451) rotate(0 122.5 23.5)"><path d="M11.75 0 M11.75 0 C88.35 -0.07, 166.75 0.81, 233.25 0 M11.75 0 C90.99 -0.25, 170.37 0.35, 233.25 0 M233.25 0 C242.54 0.22, 243.45 2.94, 245 11.75 M233.25 0 C243.36 1.67, 242.71 2.85, 245 11.75 M245 11.75 C246.86 19.23, 244.58 29.62, 245 35.25 M245 11.75 C245.51 21.83, 244.4 29.93, 245 35.25 M245 35.25 C246.98 41.1, 240.51 48.79, 233.25 47 M245 35.25 C245.28 43.85, 239.38 45.12, 233.25 47 M233.25 47 C149.82 45.81, 69.87 47.11, 11.75 47 M233.25 47 C187.23 47.59, 142.29 47.88, 11.75 47 M11.75 47 C5.33 48.77, 1.11 41.63, 0 35.25 M11.75 47 C5.01 44.75, 0.54 42.86, 0 35.25 M0 35.25 C0.93 28.65, 1.28 26.52, 0 11.75 M0 35.25 C-0.33 29.86, 0.12 25.61, 0 11.75 M0 11.75 C1.65 3.59, 3.01 -0.22, 11.75 0 M0 11.75 C2.16 4.96, 1.93 0.18, 11.75 0" stroke="#1e1e1e" stroke-width="1" fill="none"></path></g><g transform="translate(1043.6960015625332 1006.4619969451451) rotate(0 92.5599136352539 12.5)"><text x="92.5599136352539" y="0" font-family="Virgil, Segoe UI Emoji" font-size="20px" fill="#1e1e1e" text-anchor="middle" style="white-space: pre;" direction="ltr" dominant-baseline="text-before-edge">sock_to_client_cb</text></g><g stroke-linecap="round" transform="translate(1336.153211666226 988.4569602216836) rotate(0 146.78266825712092 106.22905928292928)"><path d="M32 0 M32 0 C109.91 -2.53, 186.31 -1.66, 261.57 0 M261.57 0 C283.51 0.36, 295.55 12.13, 293.57 32 M293.57 32 C294.4 79.63, 290.43 123.44, 293.57 180.46 M293.57 180.46 C295.19 200.97, 283.76 214.41, 261.57 212.46 M261.57 212.46 C211.3 211.46, 156.65 213.5, 32 212.46 M32 212.46 C12.25 211.51, -0.81 203.77, 0 180.46 M0 180.46 C0.67 151.32, -1.06 119.22, 0 32 M0 32 C1.39 12.07, 9.58 -1.77, 32 0" stroke="#1e1e1e" stroke-width="1.5" fill="none" stroke-dasharray="8 9"></path></g><g stroke-linecap="round" transform="translate(1362.5891712215603 996.1796511891573) rotate(0 122.5 23.5)"><path d="M11.75 0 M11.75 0 C97.7 0.98, 183.25 1.28, 233.25 0 M11.75 0 C99.55 -0.63, 189.54 0.41, 233.25 0 M233.25 0 C239.09 -0.93, 246.63 3.09, 245 11.75 M233.25 0 C242.08 2.25, 243.3 3.55, 245 11.75 M245 11.75 C243.88 20.02, 246.8 24.79, 245 35.25 M245 11.75 C244.95 18.75, 245.36 24.28, 245 35.25 M245 35.25 C243.52 41.45, 242.48 48.4, 233.25 47 M245 35.25 C243.76 41.05, 240.87 47.55, 233.25 47 M233.25 47 C152.59 46.69, 71.03 47.57, 11.75 47 M233.25 47 C158.75 48.07, 83.71 47.84, 11.75 47 M11.75 47 C4.39 46.81, -1.79 42.35, 0 35.25 M11.75 47 C3.34 47.97, -1.9 44.45, 0 35.25 M0 35.25 C-0.83 26.33, -0.35 18.82, 0 11.75 M0 35.25 C-0.65 26.7, 0.74 18.83, 0 11.75 M0 11.75 C-1.73 4.07, 3.42 1.51, 11.75 0 M0 11.75 C1.78 2.86, 5.01 -2.05, 11.75 0" stroke="#1e1e1e" stroke-width="1" fill="none"></path></g><g transform="translate(1394.719252398318 1007.1796511891573) rotate(0 90.36991882324219 12.5)"><text x="90.36991882324219" y="0" font-family="Virgil, Segoe UI Emoji" font-size="20px" fill="#1e1e1e" text-anchor="middle" style="white-space: pre;" direction="ltr" dominant-baseline="text-before-edge">clent_to_sock_cb</text></g><g transform="translate(1046.5354006300804 1065.9755126705938) rotate(0 79.53992462158203 12.5)"><text x="0" y="0" font-family="Virgil, Segoe UI Emoji" font-size="20px" fill="#1e1e1e" text-anchor="start" style="white-space: pre;" direction="ltr" dominant-baseline="text-before-edge">pod port sock[i]</text></g><g stroke-linecap="round"><g transform="translate(1122.2728171744377 1097.5971744130854) rotate(0 0.18449959348697575 21.521787898190553)"><path d="M0.88 0.13 C0.69 7.04, -0.98 35.33, -0.93 42.66 M-0.12 -0.84 C0.04 6.73, 1.1 36.71, 1.3 43.89" stroke="#1e1e1e" stroke-width="1" fill="none"></path></g><g transform="translate(1122.2728171744377 1097.5971744130854) rotate(0 0.18449959348697575 21.521787898190553)"><path d="M-6.52 22.27 C-4.96 32.13, 0.02 34.54, 0.37 45.51 M-7.48 23.66 C-4.6 29.89, -3.05 33.45, 1.94 44.68" stroke="#1e1e1e" stroke-width="1" fill="none"></path></g><g transform="translate(1122.2728171744377 1097.5971744130854) rotate(0 0.18449959348697575 21.521787898190553)"><path d="M8.26 21.8 C5.13 31.91, 5.41 34.47, 0.37 45.51 M7.3 23.19 C6.36 29.68, 4.09 33.37, 1.94 44.68" stroke="#1e1e1e" stroke-width="1" fill="none"></path></g></g><mask></mask><g transform="translate(1053.5434317258519 1153.5820267419192) rotate(0 79.24992370605469 12.5)"><text x="0" y="0" font-family="Virgil, Segoe UI Emoji" font-size="20px" fill="#1e1e1e" text-anchor="start" style="white-space: pre;" direction="ltr" dominant-baseline="text-before-edge">websocket client</text></g><g transform="translate(1423.8986784880167 1057.6784975954358) rotate(0 46.40995788574219 12.5)"><text x="0" y="0" font-family="Virgil, Segoe UI Emoji" font-size="20px" fill="#1e1e1e" text-anchor="start" style="white-space: pre;" direction="ltr" dominant-baseline="text-before-edge">pipe[i][0]</text></g><g stroke-linecap="round"><g transform="translate(1467.255082389206 1085.2355604853658) rotate(0 1.1771867789718726 23.995877950773263)"><path d="M-1.19 -0.56 C-0.8 7.18, 2.83 39.02, 3.55 47.27 M0.38 1.76 C0.6 9.58, 2.74 40.97, 3.11 48.55" stroke="#1e1e1e" stroke-width="1" fill="none"></path></g><g transform="translate(1467.255082389206 1085.2355604853658) rotate(0 1.1771867789718726 23.995877950773263)"><path d="M-7.32 28.23 C-3.26 36.32, 3.31 42.74, 2.79 48.5 M-5.75 27.39 C-3.22 34.94, 1.99 43.03, 2.83 49.45" stroke="#1e1e1e" stroke-width="1" fill="none"></path></g><g transform="translate(1467.255082389206 1085.2355604853658) rotate(0 1.1771867789718726 23.995877950773263)"><path d="M9.01 27.25 C6.56 35.58, 6.61 42.38, 2.79 48.5 M10.58 26.42 C6.64 34.24, 5.4 42.72, 2.83 49.45" stroke="#1e1e1e" stroke-width="1" fill="none"></path></g></g><mask></mask><g transform="translate(1442.453722424374 1154.3118022892156) rotate(0 32.95996856689453 12.5)"><text x="0" y="0" font-family="Virgil, Segoe UI Emoji" font-size="20px" fill="#1e1e1e" text-anchor="start" style="white-space: pre;" direction="ltr" dominant-baseline="text-before-edge">sock[i]</text></g></svg>